<svg width="285" height="581" viewBox="0 0 285 581" fill="none" xmlns="http://www.w3.org/2000/svg">
<g clip-path="url(#clip0_381_288)">
<path d="M242.042 299.814C242.042 299.814 259.341 307.868 271.195 287.078C271.195 287.078 283.444 250.703 284.106 243.115C284.106 243.115 289.296 219.396 274.586 211.935L256.88 222.08L252.027 227.659L242.042 299.814Z" fill="#FACBB8"/>
<path d="M67.793 437.107L63.799 378.478L65.4012 379.106C65.4012 379.106 75.0727 394.655 89.8991 403.44L84.57 461.174L67.9787 446.16L67.793 437.107Z" fill="#C9A695"/>
<path d="M89.8992 403.44L108.093 449.367L133.113 408.867C133.113 408.867 109.683 411.087 90.4332 403.452H89.8992V403.44Z" fill="#EBC2A9"/>
<path d="M84.57 461.174L114.258 487.868L108.093 449.367L89.8992 403.44L84.57 461.174Z" fill="#C29E90"/>
<path d="M84.57 461.174L88.6917 517.049L85.4988 514.783L68.3271 451.889L67.9788 446.16L84.57 461.174Z" fill="#B79384"/>
<path d="M88.6917 517.049L97.6201 523.313L108.534 515.712L84.57 461.174L88.6917 517.049Z" fill="#EEC5AF"/>
<path d="M108.534 515.712L147.661 494.573L143.586 472.017L114.258 487.868L84.57 461.174L108.534 515.712Z" fill="#D5B19F"/>
<path d="M108.093 449.367L139.348 474.306L114.258 487.868L108.093 449.367Z" fill="#E0BEAC"/>
<path d="M134.878 470.738L187.96 412.319L162.511 488.844L147.661 494.573L143.586 472.017L139.348 474.306L134.878 470.738Z" fill="#F2CEB9"/>
<path d="M147.661 494.573L149.658 500.919L185.94 479.478L162.511 488.844L147.661 494.573Z" fill="#CFAE9E"/>
<path d="M229.305 343.928C220.435 403.615 244.607 432.133 244.607 432.133L185.929 479.478L162.499 488.856L187.949 412.33L134.878 470.738L108.093 449.367L133.113 408.867C133.113 408.867 180.321 409.669 230.373 337.897L229.305 343.928Z" fill="#F8DAC5"/>
<path d="M67.793 437.107L63.8107 441.5L54.6152 447.624L51.2947 466.95V472.807L52.4905 478.804L63.8107 499.861L85.4989 514.783L68.3271 451.889L67.793 437.107Z" fill="#6F4D45"/>
<path d="M97.6201 523.313L121.932 538.989L128.864 504.73L108.534 515.712L97.6201 523.313Z" fill="#9B695D"/>
<path d="M137.2 533.748C124.951 543.336 121.932 538.989 121.932 538.989L128.864 504.73L147.672 494.573L149.669 500.919L137.2 533.748Z" fill="#BC9080"/>
<path d="M137.2 533.748L153.257 522.824L146.604 508.96L137.2 533.748Z" fill="#926055"/>
<path d="M153.257 522.824L163.463 516.514L157.948 496.026L149.658 500.919L146.604 508.96L153.257 522.824Z" fill="#936459"/>
<path d="M230.28 469.077C222.467 473.342 185.29 505.311 185.29 505.311L163.463 516.503L157.948 496.014L185.94 479.466L191.397 475.061L230.28 469.077Z" fill="#906055"/>
<path d="M251.829 441.837C252.166 443.44 248.172 455.294 248.172 455.294L245.71 458.757L230.292 469.088L191.397 475.073L238.582 437.002L244.619 432.133L251.829 441.837Z" fill="#AA6C58"/>
<path d="M239.441 423.998L238.582 437.002L244.619 432.133L239.441 423.998Z" fill="#F8DAC5"/>
<path d="M173.273 394.643L209.602 273.399L231.383 276.549L238.976 314.259C238.976 314.259 235.865 326.334 230.373 337.885C224.87 349.437 187.566 388.554 173.273 394.643Z" fill="#F1CEBB"/>
<path d="M231.395 276.549L252.027 227.647L250.831 242.173C250.831 242.173 240.846 312.528 238.988 314.259L231.395 276.549Z" fill="#E4B8A5"/>
<path d="M209.614 273.399L210.67 269.716L195.716 266.252L174.109 297.211L177.035 320.57L177 329.355L166.899 321.651L139.011 343.37L178.417 366.357L132.289 363.893L138.547 370.285L169.233 388.6L176.64 383.394L209.614 273.399Z" fill="#F9D7BE"/>
<path d="M132.289 363.893L129.165 359.966L139.011 343.37L178.417 366.357L132.289 363.893Z" fill="#F4CDB2"/>
<path d="M65.4012 379.106C65.4012 379.106 93.6261 392.075 98.0148 398.606L97.2021 405.706C97.2021 405.706 81.1101 403.301 65.4012 379.106Z" fill="#B08571"/>
<path d="M98.0148 398.594C98.0148 398.594 108.929 403.742 113.062 403.44L109.416 408.158C109.416 408.158 101.951 407.217 97.2021 405.706L98.0148 398.594Z" fill="#B48B76"/>
<path d="M113.062 403.44H122.385L133.125 408.856C133.125 408.856 112.435 409.716 109.428 408.158L113.062 403.44Z" fill="#B18671"/>
<path d="M133.113 408.856C133.113 408.856 147.254 407.752 157.75 402.65L151.922 397.13C151.922 397.13 130.094 404.951 122.373 403.44L133.113 408.856Z" fill="#BF9580"/>
<path d="M157.75 402.65C159.585 402.58 173.273 394.631 173.273 394.631L193.859 372.214C164.438 394.597 151.933 397.13 151.933 397.13L157.75 402.65Z" fill="#C49B88"/>
<path d="M193.859 372.214L225.741 344.347C225.741 344.347 206.746 372.156 173.285 394.631L193.859 372.214Z" fill="#E3C1AF"/>
<path d="M63.8106 378.478L51.4804 362.755C51.4804 362.755 29.293 324.742 27.5166 312.656L63.8106 378.478Z" fill="#E7C5B4"/>
<path d="M55.8111 363.986C60.5133 355.805 57.3204 295.607 57.3204 295.607L44.1891 297.56L38.8599 269.309L20.2253 267.356L27.505 312.656L55.8111 363.986Z" fill="#DAB4A3"/>
<path d="M58.0983 348.554L71.7057 321.72H58.0983V348.554Z" fill="#B88E79"/>
<path d="M174.109 297.211L162.046 281.755L148.729 251.9L146.604 227.659L203.925 253.678L195.716 266.252L174.109 297.211Z" fill="#F6C0A9"/>
<path d="M38.8715 269.32L37.9891 257.42C37.9891 257.42 30.0012 241.79 29.6529 239.477C29.3046 237.165 29.6529 225.439 29.6529 225.439C29.6529 225.439 22.9073 214.248 19.5403 213.539C19.5403 213.539 16.6144 251.377 20.2485 267.368L38.8715 269.32Z" fill="#DDBFB1"/>
<path d="M58.0171 312.656C58.0171 312.656 72.1934 303.463 74.9915 303.196L99.4894 292.272L95.2284 289.878L76.4544 284.544L58.0171 312.656Z" fill="#D19687"/>
<path d="M37.9775 257.409C37.9775 257.409 39.8468 262.29 76.4427 284.544L58.0054 312.656L57.3204 295.596L44.1891 297.548L38.8599 269.297L37.9775 257.409Z" fill="#CD9382"/>
<path d="M37.9775 257.409L79.682 234.317C79.682 234.317 79.5079 248.17 81.2843 248.704V259.896C81.2843 259.896 81.1101 265.578 83.7689 265.404C83.7689 265.404 80.309 274.736 89.8063 281.662C89.8063 281.662 96.5519 284.986 95.2167 289.878L76.4427 284.544C76.4543 284.544 39.4056 262.034 37.9775 257.409Z" fill="#C17D72"/>
<path d="M29.6413 225.439L30.93 211.133C30.93 211.133 35.9922 228.716 52.4905 230.587L37.9775 257.409L29.6413 239.466V225.439Z" fill="#BD9284"/>
<path d="M86.3 325.183C82.9678 324.649 76.8491 329.181 76.8491 329.181C75.6533 327.182 70.6376 323.812 70.6376 323.812C70.6376 323.812 75.0727 323.057 77.3716 323.812C79.6704 324.567 84.2101 324.347 84.5584 323.859L86.509 324.742L86.3 325.183Z" fill="#A95E61"/>
<path d="M124.51 344.951C128.759 344.021 123.709 340.337 123.709 340.337L128.724 333.318C122.199 331.494 109.997 331.633 109.997 331.633C96.4242 336.293 92.9527 343.847 92.9527 343.847C92.9527 343.847 112.795 347.519 124.51 344.951Z" fill="#E28083"/>
<path d="M76.8491 329.181C76.8491 329.181 90.8396 343.487 92.9527 343.835C92.9527 343.835 94.555 341.43 94.9729 340.965C94.9729 340.965 93.2662 341.441 92.3838 336.247C91.5014 331.052 88.7846 327.275 88.7846 327.275C88.7846 327.275 87.6816 327.798 85.3711 325.16C85.3711 325.16 81.3307 325.671 76.8491 329.181Z" fill="#C87C7F"/>
<path d="M128.724 333.318C128.724 333.318 139.243 327.763 140.567 325.637C140.567 325.637 151.481 326.345 155.475 324.66C155.475 324.66 162.232 325.3 164.566 323.487L139.011 343.382C139.011 343.382 126.762 345.567 126.17 343.847C125.566 342.127 126.1 342.557 123.709 340.337L128.724 333.318Z" fill="#EE999B"/>
<path d="M152.177 333.121L128.364 344.498C128.364 344.498 136.956 344.114 139.011 343.382L152.177 333.121Z" fill="#EE999B"/>
<path d="M111.727 315.503C111.727 315.503 120.957 313.016 121.224 312.656C121.491 312.295 133.032 312.481 140.66 316.386C148.288 320.291 159.654 322.603 162.58 321.627C162.58 321.627 159.294 324.114 130.895 323.847L119.273 325.718C119.273 325.718 118.472 322.429 111.727 315.503Z" fill="#E89A99"/>
<path d="M119.273 325.718C103.739 327.136 95.4025 322.348 95.4025 322.348C94.6014 317.641 96.4706 311.773 96.4706 311.773C98.3399 310.262 103.216 312.656 104.099 312.656C104.981 312.656 111.727 315.503 111.727 315.503L117.033 321.72L119.273 325.718Z" fill="#D37270"/>
<path d="M96.459 311.773C96.459 311.773 88.1344 314.434 85.9052 316.038L83.0607 321.72C83.0607 321.72 86.0794 323.766 89.7599 322.789C93.4403 321.813 95.3909 322.348 95.3909 322.348C95.3909 322.348 94.3343 319.14 96.459 311.773Z" fill="#C5686B"/>
<path d="M85.9052 316.038C81.4817 317.188 75.421 320.128 75.9551 320.837C76.4892 321.546 83.0491 321.72 83.0491 321.72L85.9052 316.038Z" fill="#C67171"/>
<path d="M70.2892 323.475L71.7057 321.72L75.9667 320.837C75.9667 320.837 80.8431 321.906 83.0607 321.72C83.0607 321.72 85.5801 323.312 87.67 323.045C89.7599 322.778 93.3475 321.988 95.3909 322.336C95.3909 322.336 101.521 325.207 104.714 325.241L104.18 326.322C104.18 326.322 95.6579 325.09 86.5206 324.73L84.57 323.847C84.57 323.847 80.7502 324.916 77.3832 323.8C74.0162 322.685 70.2892 323.475 70.2892 323.475Z" fill="#65302E"/>
<path d="M162.58 321.627L166.911 321.651L164.577 323.475C163.172 325.16 155.486 324.649 155.486 324.649C154.708 325.044 146.546 326.775 140.578 325.625C134.611 324.474 128.376 325.974 128.376 325.974C126.112 325.706 118.658 327.171 112.47 328.309C106.281 329.437 104.192 326.322 104.192 326.322L104.726 325.241C104.726 325.241 114.293 326.508 119.273 325.718C124.254 324.916 127.703 324.184 130.895 323.847C134.088 323.51 155.916 324.207 162.58 321.627Z" fill="#A53A40"/>
<path d="M108.093 402.557C111.216 403.429 96.0294 385.811 96.0294 385.811H92.9643V394.085C92.9643 394.085 95.6231 395.666 98.0264 398.606C98.0148 398.594 106.665 402.162 108.093 402.557Z" fill="#D6A88D"/>
<path d="M92.9527 385.811C92.9527 385.811 95.565 360.361 96.459 359.826C97.3414 359.291 111.506 355.433 111.506 355.433C111.506 355.433 108.836 361.825 109.416 365.288C109.997 368.751 96.0178 385.811 96.0178 385.811H92.9527Z" fill="#E19787"/>
<path d="M96.4591 359.826L92.9527 343.835C92.9527 343.835 85.3595 338.769 76.8491 329.181C76.8491 329.181 72.0192 323.963 70.6376 323.812L58.0867 348.554C58.0867 348.554 57.3669 361.685 55.7995 363.998L63.7874 378.49C63.7874 378.49 87.879 389.576 92.9411 394.097V385.823C92.9527 385.811 95.6231 360.151 96.4591 359.826Z" fill="#CFA690"/>
<path d="M96.459 359.826L92.9527 343.835C92.9527 343.835 112.783 346.775 118.646 345.857C118.646 345.857 115.279 345.3 96.459 359.826Z" fill="#E7BDA4"/>
<path d="M111.506 355.433C111.506 355.433 127.563 356.363 129.165 359.965C129.165 359.965 118.298 344.963 113.062 348.263C107.814 351.563 96.4706 359.838 96.4706 359.838L111.506 355.433Z" fill="#D5AA90"/>
<path d="M129.165 359.965L139.011 343.382C139.011 343.382 129.514 344.602 128.364 344.498C127.215 344.393 125.659 344.509 125.659 344.509C125.659 344.509 120.597 346.16 118.646 345.869C116.696 345.578 113.898 347.787 113.898 347.787C113.898 347.787 119.448 346.508 129.165 359.965Z" fill="#E0AC98"/>
<path d="M108.093 402.557C108.093 402.557 113.944 404.079 124.336 403.626L114.258 383.185C114.258 383.185 110.577 401.581 108.093 402.557Z" fill="#CDA08A"/>
<path d="M124.324 403.626C124.324 403.626 130.884 403.568 133.635 402.441L115.547 385.811L124.324 403.626Z" fill="#E5AE98"/>
<path d="M109.416 365.288L113.062 363.115L121.851 366.357L138.558 370.285L132.3 363.893L120.458 356.468L111.506 355.433C111.506 355.433 108.882 360.709 109.416 365.288Z" fill="#F7BAA5"/>
<path d="M132.289 363.893L120.446 356.467C120.446 356.467 127.134 357.42 129.154 359.965C131.186 362.499 132.289 363.893 132.289 363.893Z" fill="#F9D0B9"/>
<path d="M151.922 397.13L133.635 386.555L125.23 394.713L133.635 402.429C133.635 402.441 148.648 398.815 151.922 397.13Z" fill="#EEC6AB"/>
<path d="M137.211 381.476C135.284 375.212 132.358 373.876 128.295 373.876C124.231 373.876 124.173 375.677 124.324 377.606C124.475 379.536 124.324 381 124.324 381C128.539 385.532 133.635 386.555 133.635 386.555C133.635 386.555 136.283 386.194 136.619 384.939C136.956 383.673 137.211 381.476 137.211 381.476Z" fill="#FCDED2"/>
<path d="M64.9136 394.713L35.7251 426.392C35.7251 426.392 21.4792 473.005 46.3719 496.014C46.3719 496.014 40.7757 457.479 54.6268 447.612C68.4664 437.758 67.8046 437.084 67.8046 437.084L64.9136 394.713Z" fill="#210D12"/>
<path d="M35.7135 426.404C35.7135 426.404 27.3192 412.389 47.2891 397.142C47.2891 397.142 61.6859 387.473 64.4028 387.45L64.902 394.724L35.7135 426.404Z" fill="#33161C"/>
<path d="M51.2946 472.807L50.4935 478.536L62.6032 503.185L81.1101 517.27L114.258 534.632L63.8106 499.861L52.4905 478.804L51.2946 472.807Z" fill="#F6F3F1"/>
<path d="M62.6031 503.185L71.1252 525.172L82.3756 533.748L81.1101 517.27L62.6031 503.185Z" fill="#D8D9D8"/>
<path d="M82.3756 533.748L114.258 534.632L81.1101 517.27L82.3756 533.748Z" fill="#E3E2E1"/>
<path d="M71.1252 525.172L49.7272 506.787C49.7272 506.787 48.2295 504.591 46.3602 496.026C44.491 487.461 43.1674 455.352 54.6152 447.624L51.283 466.938V472.795L50.4819 478.525L62.5915 503.173L71.1252 525.172Z" fill="#7F7F80"/>
<path d="M82.3756 533.748L128.864 562.883L139.278 558.49L166.795 523.313L185.29 505.323L163.463 516.514L153.257 522.824L137.2 533.748C137.2 533.748 127.389 542.499 121.932 538.989C116.487 535.48 114.258 534.632 114.258 534.632L82.3756 533.748Z" fill="#BBBABA"/>
<path d="M49.7272 506.787L77.7779 549.693L62.6031 541.023L49.7272 506.787Z" fill="#8E8D8E"/>
<path d="M72.4952 559.013L77.7779 549.693L62.6031 541.023L72.4952 559.013Z" fill="#CCCBCA"/>
<path d="M72.4952 559.013L76.4544 564.207L128.864 562.883L82.3757 533.748L77.778 549.693L72.4952 559.013Z" fill="#C6C6C6"/>
<path d="M77.7779 549.693L82.3756 533.748L71.1252 525.172L49.7272 506.787L77.7779 549.693Z" fill="#D0CFCF"/>
<path d="M76.4543 564.207L85.5104 580.465C85.5104 580.465 86.9734 581.662 89.2374 580.465C91.5014 579.268 128.875 562.883 128.875 562.883L76.4543 564.207Z" fill="#939292"/>
<path d="M230.036 397.002L248.3 398.722C248.3 398.722 264.543 403.917 270.266 409.111C275.99 414.306 276.791 418.083 277.059 432.121L251.829 441.825L261.477 422.975L256.822 405.253L230.036 397.002Z" fill="#55232C"/>
<path d="M230.036 397.002C230.036 397.002 232.997 420.175 251.829 441.825L261.477 422.975L256.822 405.253L230.036 397.002Z" fill="#230D12"/>
<path d="M248.172 455.294L279.044 437.641L277.047 432.133L251.829 441.837L248.172 455.294Z" fill="#38151C"/>
<path d="M108.093 402.557C108.093 402.557 108.453 399.977 96.0295 385.811C96.0295 385.811 109.068 369.867 109.428 365.288L113.074 363.115L121.863 366.357L138.57 370.285L169.256 388.6C169.256 388.6 158.609 395.619 151.957 397.13L133.67 386.555L125.264 394.713L115.57 385.799L114.281 383.185C114.258 383.185 111.994 396.607 108.093 402.557Z" fill="#F6BFA9"/>
<path d="M200.209 251.993L184.675 228.321L250.262 231.831L203.925 253.678L200.209 251.993Z" fill="#ECC5AC"/>
<path d="M203.925 253.678L250.262 231.831L231.395 276.549L209.614 273.399L210.67 269.716L195.716 266.252L203.925 253.678Z" fill="#F2C9B2"/>
<path d="M127.703 289.076L165.239 305.997L164.566 303.463L147.928 282.417L127.703 289.076Z" fill="#F5AE9A"/>
<path d="M127.703 289.076C127.703 289.076 140.834 281.035 142.436 278.28C142.436 278.28 146.128 282.266 145.664 283.161C145.176 284.056 127.703 289.076 127.703 289.076Z" fill="#E78B80"/>
<path d="M165.239 305.997L176.652 317.409L174.121 297.2L162.058 281.743L148.752 251.9C148.752 251.9 143.516 255.538 144.05 257.757C144.584 259.977 148.044 276.235 142.448 278.28C142.448 278.28 146.059 282.185 145.675 283.161L147.951 282.406L164.589 303.452L165.239 305.997Z" fill="#F7CBAF"/>
<path d="M96.9467 262.429C96.9467 262.429 97.1673 265.497 100.72 268.693L103.205 267.891C103.205 267.891 114.92 255.991 115.012 254.306C115.105 252.621 114.211 234.678 114.211 234.678L116.162 211.761C116.162 211.761 116.162 208.646 116.789 204.474C117.416 200.302 117.927 195.328 117.927 195.328L107.442 189.913L103.216 215.41C103.216 215.41 103.042 233.795 104.412 241.43L96.9467 262.429Z" fill="#D8857C"/>
<path d="M127.703 289.076C127.703 289.076 120.411 288.042 119.715 287.415C119.018 286.787 112.725 285.613 112.725 285.613L126.24 280.814C126.24 280.814 127.134 280.209 127.076 278.919C127.006 277.618 131.638 273.585 135.528 277.153C135.528 277.153 135.69 275.456 136.155 273.69C136.619 271.924 134.924 270.889 133.554 270.657C133.554 270.657 135.122 269.623 139.51 271.226C143.899 272.83 143.969 272.191 143.969 272.191V274.724L142.425 278.292C142.436 278.28 133.786 286.148 127.703 289.076Z" fill="#F0A796"/>
<path d="M135.516 277.153C136.596 278.153 136.085 276.2 136.143 273.69C136.201 271.18 135.238 271.354 133.543 270.657C131.847 269.96 125.868 273.492 125.868 273.492L122.757 275.584C122.71 277.362 124.359 279.222 124.359 279.222C124.672 280.419 126.228 280.825 126.228 280.825C126.228 280.825 127.006 280.268 127.064 278.931C127.122 277.571 131.546 273.481 135.516 277.153Z" fill="#772824"/>
<path d="M131.952 270.727L130.93 268.077L121.166 268.704L124.045 262.708C124.045 262.708 124.045 262.046 122.757 261.86C122.757 261.86 123.871 261.104 125.38 261.104C126.89 261.104 129.688 261.104 129.688 261.104L143.086 267.008L145.478 267.496C145.478 267.496 145.629 272.772 145.153 274.306C144.677 275.84 143.957 274.724 143.957 274.724V272.191C143.957 272.191 141.182 272.202 138.837 270.994C136.503 269.785 133.531 270.657 133.531 270.657C133.531 270.657 132.707 270.506 131.952 270.727Z" fill="#F7BBA6"/>
<path d="M121.178 268.693L118.739 270.064C118.739 270.064 117.184 271.308 116.615 267.577L117.102 262.999C117.102 262.999 117.276 261.883 118.902 262.092L122.78 261.848C122.78 261.848 124.022 261.941 124.069 262.696C124.103 263.452 121.178 268.693 121.178 268.693Z" fill="#FBD8C5"/>
<path d="M114.908 250.215L129.688 261.093C129.688 261.093 123.79 260.605 122.768 261.848C122.768 261.848 117.578 261.406 117.091 262.999C116.603 264.602 116.603 267.577 116.603 267.577C116.603 267.577 116.603 272.458 121.178 268.693L130.942 268.065L131.964 270.715C131.964 270.715 125.311 272.993 122.78 275.573L119.982 277.478C119.982 277.478 118.751 278.629 117.927 276.549C117.102 274.457 115.941 271.261 115.941 271.261L115.012 254.294L114.908 250.215Z" fill="#F5AF9D"/>
<path d="M103.205 267.891L115.941 271.261L115.012 254.294C115.012 254.306 105.562 266.38 103.205 267.891Z" fill="#F2A092"/>
<path d="M112.725 285.613C112.725 285.613 109.683 279.129 105.155 277.304L100.72 268.693L103.205 267.891L115.941 271.261C115.941 271.261 118.379 279.791 119.982 277.478L122.78 275.573C122.78 275.573 123.407 278.548 124.382 279.21C124.382 279.21 125.264 280.942 126.251 280.814L112.725 285.613Z" fill="#EB9A8E"/>
<path d="M99.4778 292.272C99.4778 292.272 102.241 286.973 104.099 286.543C105.968 286.113 107.199 285.276 112.714 285.613C112.714 285.613 109.695 279.129 105.144 277.304C105.144 277.304 106.316 280.744 101.591 280.814C101.591 280.814 93.4055 283.742 87.9487 278.013L86.9734 279.152C86.9734 279.152 89.4464 281.476 89.7947 281.65C90.1314 281.836 96.134 284.532 95.2051 289.867L99.4778 292.272Z" fill="#C48F7F"/>
<path d="M91.5711 280.546C91.5711 280.546 92.4535 279.28 91.2228 276.049C89.9921 272.818 91.1879 271.749 92.2213 272.051C93.2546 272.354 96.5519 273.922 99.4777 278.013L101.602 280.814C101.614 280.814 95.716 282.754 91.5711 280.546Z" fill="#8E3B38"/>
<path d="M87.9602 278.025L87.7629 274.294C87.7629 274.294 86.4973 271.401 88.564 271.435C90.6306 271.47 91.8613 270.901 92.2212 272.063C92.2212 272.063 89.9572 271.459 91.2228 276.061C92.4883 280.663 91.5711 280.558 91.5711 280.558C91.5711 280.558 88.2969 278.524 87.9602 278.025Z" fill="#B87268"/>
<path d="M83.8386 273.853C83.8386 273.853 85.8007 273.283 85.5685 269.82C85.3363 266.357 96.1804 268.216 96.6448 268.693C97.1092 269.169 100.407 271.494 101.602 275.549C101.602 275.549 104.11 277.897 105.155 277.304C105.155 277.304 106.13 280.976 101.602 280.814C101.602 280.814 95.8785 272.691 92.2213 272.051C92.2213 272.051 92.1864 270.657 88.564 271.424C88.564 271.424 86.3696 271.587 87.7629 274.283L87.9603 278.013L86.985 279.152C86.985 279.164 84.3378 275.898 83.8386 273.853Z" fill="#D29C90"/>
<path d="M114.908 250.215L114.211 234.666L132.289 247.566L145.49 267.484C145.49 267.484 134.262 263.533 129.7 261.081L114.908 250.215Z" fill="#F2A092"/>
<path d="M132.289 247.577L144.027 257.769L145.49 267.496L132.289 247.577Z" fill="#DC8E7F"/>
<path d="M148.462 248.786L124.603 211.761L114.223 234.678L132.3 247.577L144.038 257.769C144.038 257.769 143.864 255.456 148.741 251.912L148.462 248.786Z" fill="#F4AC9B"/>
<path d="M114.211 234.678L124.591 211.761L128.852 201.987L117.927 195.328L116.162 211.761L114.211 234.678Z" fill="#F4A897"/>
<path d="M124.591 211.761L126.228 207.996C126.228 207.996 142.738 217.13 146.593 227.659L148.45 248.786L124.591 211.761Z" fill="#E9A58E"/>
<path d="M159.538 233.527L170.963 227.659C170.963 227.659 177.349 228.728 184.675 228.321L200.209 251.993L159.538 233.527Z" fill="#D7AA9C"/>
<path d="M184.675 228.321C184.675 228.321 186.672 222.057 199.188 217.932C211.704 213.806 208.639 212.33 208.639 212.33L226.611 216.99L250.273 231.819L184.675 228.321Z" fill="#EEC9AF"/>
<path d="M159.538 233.527L170.963 227.659C170.963 227.659 159.91 222.464 157.785 220.86C155.66 219.256 150.459 217.792 150.459 217.792C150.459 217.792 147.127 219.001 144.526 223.661C144.526 223.661 146.279 224.033 146.593 227.659L159.538 233.527Z" fill="#D1A399"/>
<path d="M52.4905 230.587C52.4905 230.587 55.8227 224.73 67.9323 223.928C67.9323 223.928 71.3922 222.278 78.045 231.831L79.682 234.317L37.9775 257.409L52.4905 230.587Z" fill="#A7726B"/>
<path d="M144.538 223.661C146.813 219.14 150.471 217.792 150.471 217.792C148.381 216.107 146.616 213.62 146.616 213.62C144.305 213.713 142.448 211.04 142.448 211.04C148.125 200.918 142.448 203.312 142.448 203.312L126.251 207.984C126.251 207.984 139.568 216.839 142.448 220.872C145.304 224.904 144.538 223.661 144.538 223.661Z" fill="#E0BAA3"/>
<path d="M117.927 195.328L112.609 165.927L137.908 185.904L128.852 201.987L117.927 195.328Z" fill="#F7BA96"/>
<path d="M100.023 213.457V201.987C100.023 201.987 103.82 193.457 107.442 189.913L103.216 215.41C103.205 215.398 102.682 212.586 100.023 213.457Z" fill="#CFA799"/>
<path d="M100.023 201.987L94.6478 184.312L96.9583 183.603L107.442 189.913C107.442 189.901 102.241 195.77 100.023 201.987Z" fill="#CC988B"/>
<path d="M117.927 195.328L107.442 189.913L96.9583 183.603L94.6478 184.312L84.0475 168.763C84.0475 168.763 82.364 167.519 81.83 167.693C81.2959 167.868 77.1277 158.362 77.1277 158.362L82.7239 156.758L93.9047 155.782L113.608 157.025L112.632 165.904L117.927 195.328Z" fill="#E7B19D"/>
<path d="M144.77 203.661L160.455 184.672C160.455 184.672 162.499 181.557 165.599 183.963C168.71 186.357 179.88 193.365 179.88 193.365C179.88 193.365 156.903 191.61 142.436 211.064C142.436 211.052 145.501 206.043 144.77 203.661Z" fill="#D09985"/>
<path d="M142.436 211.052C142.436 211.052 149.449 206.438 151.759 206.171C151.759 206.171 152.154 206.973 149.983 211.052H152.293L161.965 205.45C161.965 205.45 165.297 204.66 159.55 197.374C159.538 197.374 147.22 203.405 142.436 211.052Z" fill="#9E5A4E"/>
<path d="M146.604 213.62L149.971 211.04C149.971 211.04 152.015 207.217 151.748 206.159C151.481 205.09 142.425 211.04 142.425 211.04C142.425 211.04 144.387 213.62 146.604 213.62Z" fill="#E5B09E"/>
<path d="M146.604 213.62C146.604 213.62 156.276 215.305 158.412 214.596C158.412 214.596 165.692 216.281 172.344 216.107C172.344 216.107 174.016 218.234 179.88 217.792C179.88 217.792 175.096 220.372 175.27 223.208C175.27 223.208 172.252 225.52 170.963 227.647C170.963 227.647 159.12 222.313 157.785 220.849C156.45 219.384 150.459 217.781 150.459 217.781C150.459 217.781 147.22 214.864 146.604 213.62Z" fill="#C17D7A"/>
<path d="M152.282 211.052C152.282 211.052 157.959 211.145 158.4 214.608C158.4 214.608 153.071 214.968 146.593 213.632L149.96 211.052H152.282Z" fill="#A8675E"/>
<path d="M162.731 204.765H164.089C164.089 204.765 170.301 201.453 174.469 201.534L179.88 193.341C179.88 193.341 167.468 192.795 159.55 197.362C159.538 197.374 163.764 202.754 162.731 204.765Z" fill="#A8665B"/>
<path d="M158.4 214.596L162.905 215.421C162.905 215.421 161.5 213.051 164.078 204.765H162.719L152.27 211.04C152.282 211.052 157.611 210.959 158.4 214.596Z" fill="#9D7C73"/>
<path d="M164.078 204.765L166.272 203.719C166.272 203.719 166.121 211.668 172.333 216.107C172.333 216.107 164.287 215.677 162.905 215.421C162.917 215.421 161.593 210.924 164.078 204.765Z" fill="#AD978C"/>
<path d="M174.469 201.546C174.469 201.546 185.801 201.418 188.274 202.743C188.274 202.743 193.139 214.073 179.88 217.804C179.88 217.804 173.633 218.164 172.344 216.119C172.344 216.119 166.075 211.865 166.284 203.731C166.272 203.719 171.892 201.232 174.469 201.546Z" fill="#002932"/>
<path d="M175.27 223.219C175.27 223.219 179.972 220.291 182.817 220.419L189.83 217.827C189.83 217.827 190.944 215.933 188.901 216.119C188.901 216.119 183.27 217.711 182.318 216.955L179.891 217.804C179.868 217.792 175.085 220.465 175.27 223.219Z" fill="#BA8680"/>
<path d="M189.818 217.815C189.818 217.815 194.59 216.13 195.554 214.422C195.554 214.422 194.184 214.399 194.218 213.609C194.218 213.609 189.539 216.177 188.878 216.095C188.889 216.107 190.84 216.084 189.818 217.815Z" fill="#C09690"/>
<path d="M194.218 213.62L198.178 211.04C198.178 211.04 199.014 212.098 199.977 211.9V212.702L195.554 214.434C195.554 214.434 194.16 214.248 194.218 213.62Z" fill="#A2756C"/>
<path d="M188.262 202.743C188.262 202.743 189.435 202.185 196.355 205.276L203.321 209.344L203.228 210.924L199.966 211.912C199.966 211.912 198.596 211.807 198.166 211.052C198.166 211.052 193.255 207.008 189.075 206.345C189.087 206.334 188.692 203.184 188.262 202.743Z" fill="#684137"/>
<path d="M203.333 209.332C203.333 209.332 207.419 210.308 208.395 211.9C208.395 211.9 206.003 212.156 204.981 211.18L203.251 210.912L203.333 209.332Z" fill="#825143"/>
<path d="M182.295 216.944C182.295 216.944 189.644 214.585 189.087 206.334C189.087 206.334 193.94 207.275 198.178 211.04L194.218 213.62C194.218 213.62 189.063 216.421 188.878 216.107C188.889 216.107 183.038 217.699 182.295 216.944Z" fill="#CFCCC9"/>
<path d="M179.868 193.353C179.868 193.353 194.253 194.62 207.628 200.14L206.293 201.511C206.293 201.511 184.419 195.247 178.951 194.724L179.868 193.353Z" fill="#B88370"/>
<path d="M174.469 201.546L178.962 194.736C178.962 194.736 200.384 199.431 206.305 201.523L197.667 206.043C197.667 206.043 191.397 202.685 188.262 202.754C188.262 202.743 181.9 201.139 174.469 201.546Z" fill="#DBA892"/>
<path d="M197.667 206.032L206.305 201.511L207.64 200.14L214.095 201.511L223.001 216.061L208.639 212.33C208.639 212.33 208.279 210.204 203.333 209.332L197.667 206.032Z" fill="#D7A187"/>
<path d="M179.868 193.353C179.868 193.353 197.179 178.896 202.241 177.827C207.303 176.758 207.303 179.756 207.303 179.756L214.095 201.511L207.64 200.14C207.628 200.14 195.902 194.887 179.868 193.353Z" fill="#DDAA91"/>
<path d="M126.24 207.996L128.852 201.987L137.908 185.915C137.908 185.915 171.961 177.304 175.886 178.036C175.886 178.036 183.781 176.886 188.889 177.99C188.889 177.99 196.459 180.697 198.189 179.733C198.189 179.733 181.215 191.331 179.88 193.365L165.599 183.963C165.599 183.963 162.708 181.941 160.455 184.672C158.191 187.403 144.77 203.661 144.77 203.661C144.77 203.661 144.422 202.754 142.436 203.324C140.439 203.893 126.24 207.996 126.24 207.996Z" fill="#DEAE96"/>
<path d="M78.3933 232.342L87.9951 221.348L90.9557 226.845L84.8487 234.98C84.8487 234.98 80.4948 238.838 81.2959 248.704C81.2959 248.704 79.5195 248.612 79.6937 234.318L78.3933 232.342Z" fill="#AE8380"/>
<path d="M87.9835 221.348L94.3808 212.691L95.5883 220.384L90.9441 226.845L87.9835 221.348Z" fill="#A97977"/>
<path d="M94.3808 212.691L96.5519 210.866L100.023 209.402V213.457C100.023 213.457 99.5126 213.841 99.083 214.736C98.6534 215.631 96.0875 219.686 95.5883 220.384L94.3808 212.691Z" fill="#AF8480"/>
<path d="M67.9323 223.928C67.9323 223.928 88.0299 217.374 91.5594 212.691H94.3808L87.9951 221.348L78.3933 232.342C78.3933 232.342 72.5881 223.312 67.9323 223.928Z" fill="#8F5D59"/>
<path d="M96.5519 210.866C96.5519 210.866 83.3741 193.946 80.6457 193.411L84.6629 187.414L92.4883 185.148L95.0774 185.753L100.012 201.976V209.39L96.5519 210.866Z" fill="#945F59"/>
<path d="M55.8227 200.082C55.8227 200.082 52.0958 212.667 64.4028 214.538C76.7214 216.409 75.3862 203.417 75.3862 203.417L74.7824 201.418L71.6593 200.082H55.8227Z" fill="#002932"/>
<path d="M70.1035 223.184L68.5361 214.562C68.5361 214.562 79.5659 214.654 81.1333 213.864L90.7699 213.527C90.7699 213.539 84.7326 218.687 70.1035 223.184Z" fill="#864F4D"/>
<path d="M91.5595 212.691C91.5595 212.691 88.7149 207.856 88.1693 207.705L93.5913 207.136L96.5635 210.866L94.3924 212.691H91.5595Z" fill="#8C544F"/>
<path d="M81.1333 213.864C81.1333 213.864 87.403 209.983 83.1419 207.136L75.2121 202.847C75.2121 202.847 76.9188 212.632 68.5245 214.562C68.5361 214.573 80.2277 214.515 81.1333 213.864Z" fill="#6A4F47"/>
<path d="M81.1334 213.864C81.1334 213.864 87.3797 209.774 83.142 207.136L83.7921 205.23L88.146 207.693L91.5363 212.679L90.7468 213.527L81.1334 213.864Z" fill="#642E2A"/>
<path d="M75.2237 202.859L74.7941 201.418L77.627 201.813C77.627 201.813 81.8532 203.44 83.8153 205.241L83.1651 207.147L75.2237 202.859Z" fill="#4D2F29"/>
<path d="M72.2166 200.314L77.1161 192.249L80.6457 193.411C80.6457 193.411 85.6962 196.525 93.5797 207.136L88.1576 207.705L83.8037 205.241C83.8037 205.241 79.624 202.301 77.6154 201.813L74.7825 201.418L72.2166 200.314Z" fill="#78433F"/>
<path d="M55.8227 200.082L55.1609 199.349C55.1609 199.349 49.2048 200.221 48.3108 200.849C48.3108 200.849 50.2381 197.281 50.0756 194.991C50.0756 194.991 51.6778 189.89 52.5021 189.867H62.8238L75.63 194.736L72.2398 200.326L71.6825 200.082H55.8227Z" fill="#B07468"/>
<path d="M62.8121 189.855H74.5851L84.6629 187.414L80.6457 193.411L77.1161 192.249L75.6184 194.724L62.8121 189.855Z" fill="#925952"/>
<path d="M55.8227 200.082L55.1609 199.349C55.1609 199.349 52.061 200.047 48.3108 200.849C44.5607 201.65 35.8297 210.041 35.8297 210.041C35.8297 210.041 38.3027 211.157 41.9251 208.007C41.9251 208.007 42.9004 207.438 44.6535 207.403C44.6535 207.403 47.4749 205.032 48.9145 204.637C48.9145 204.637 54.1741 200.198 55.5325 206.752C55.5209 206.74 55.1029 201.232 55.8227 200.082Z" fill="#5C3C32"/>
<path d="M43.2951 203.649L38.8716 200.07L47.9625 192.342C47.9625 192.342 50.2033 190.413 50.064 194.968C50.064 194.968 49.9247 198.757 48.2992 200.825C48.2992 200.837 44.5258 202.255 43.2951 203.649Z" fill="#D0B2A7"/>
<path d="M64.4028 214.538C50.4471 216.386 44.6303 207.403 44.6303 207.403C44.6303 207.403 47.4749 205.009 48.8913 204.637C48.8913 204.637 54.3714 200.442 55.5092 206.752C55.5092 206.752 56.2987 212.946 62.8006 214.224L64.4028 214.538Z" fill="#CBBEBA"/>
<path d="M41.6929 208.181L52.4905 219.477L53.4658 229.378C53.4658 229.378 59.4567 223.661 67.9323 223.928L70.1035 223.196L68.5361 214.573L64.4028 214.538C64.4028 214.538 52.0261 216.723 44.6303 207.403C44.6419 207.391 42.1457 207.496 41.6929 208.181Z" fill="#945E5C"/>
<path d="M30.9301 211.133L31.5918 205.044L38.8716 200.07L43.2951 203.649C43.2951 203.649 36.1896 209.378 35.818 210.029C35.818 210.029 38.2214 210.959 41.6929 208.181L52.4905 219.477L53.4658 229.379L52.4905 230.587C52.4905 230.587 37.7105 230.32 30.9301 211.133Z" fill="#C5A89D"/>
<path d="M31.5919 205.055L33.1012 191.505L52.4905 189.855L50.064 194.98C50.064 194.98 50.6793 190.878 47.9625 192.353L38.8716 200.082L31.5919 205.055Z" fill="#B98B7F"/>
<path d="M55.2886 189.855L70.1964 179.686L86.9269 183.289L92.4883 185.148L84.6629 187.414L74.5851 189.855H55.2886Z" fill="#C08E7D"/>
<path d="M33.1012 191.505V180.674C33.1012 180.674 45.3966 177.339 49.2048 177.339C53.0246 177.339 62.1155 176.944 70.1964 179.698L55.2886 189.855H52.4905L33.1012 191.505Z" fill="#C99887"/>
<path d="M24.5676 294.364C24.5676 294.364 12.4231 283.44 13.2242 257.42L20.2369 267.368L20.98 272.017L16.9512 271.319L23.0698 285.044L24.5676 294.364Z" fill="#D4AB9D"/>
<path d="M23.0698 285.032L16.9512 271.319L20.98 272.005L23.0698 285.032Z" fill="#B57063"/>
<path d="M14.9542 259.861C14.9542 259.861 15.4766 242.441 18.4141 245.776C18.4141 245.776 18.3328 262.301 20.2369 267.356L14.9542 259.861Z" fill="#A55E54"/>
<path d="M13.2242 257.409V244.172L18.4141 235.642V245.764C18.4141 245.764 15.3489 243.475 14.9542 259.849L13.2242 257.409Z" fill="#C2988D"/>
<path d="M13.2242 244.172V233.155C13.2242 233.155 14.9193 227.298 13.1894 220.453C13.1894 220.453 13.7119 218.431 18.8785 224.37L18.4141 235.642L13.2242 244.172Z" fill="#9C3F3B"/>
<path d="M13.1894 220.465C13.1894 220.465 10.0314 215.851 14.1182 211.935L19.1223 219.768L18.8785 224.381C18.8785 224.381 14.6523 218.861 13.1894 220.465Z" fill="#D0A497"/>
<path d="M14.1066 211.935L17.5897 206.787L19.7841 208.716L19.5287 213.539L19.1223 219.768L14.1066 211.935Z" fill="#A9776B"/>
<path d="M245.757 276.549C245.757 276.549 250.03 277.083 251.353 275.747C252.677 274.411 251.887 269.216 258.006 269.483C264.125 269.75 265.994 269.472 265.994 269.472C265.994 269.472 269.059 257.095 268.792 255.759C268.525 254.422 259.213 251.145 257.286 240.988C257.286 240.988 248.033 249.843 253.362 253.667C253.362 253.667 263.881 250.552 264.148 256.688C264.148 256.688 257.623 270.192 255.092 266.241L246.245 273.388L245.757 276.549Z" fill="#C06255"/>
<path d="M251.365 275.759C251.365 275.759 266.04 272.295 268.815 267.101C271.59 261.906 278.127 247.693 257.286 241.011C257.286 241.011 256.949 247.519 268.792 255.782L265.994 269.495L258.006 269.506C258.017 269.495 253.362 268.158 251.365 275.759Z" fill="#ECA595"/>
<path d="M255.092 266.252C255.092 266.252 257.483 267.589 253.362 253.678C253.362 253.678 263.741 250.703 264.148 256.7C264.136 256.7 257.089 270.204 255.092 266.252Z" fill="#EC9A84"/>
<path d="M258.749 237.711C258.749 237.711 264.345 237.711 264.136 236.374L262.94 232.516L258.749 236.444C258.749 236.444 258.087 237.246 258.749 237.711Z" fill="#D67967"/>
<path d="M274.992 244.846L270.464 228.728C270.464 228.728 268.397 224.532 273.587 222.929C273.587 222.929 279.915 227.926 274.992 244.846Z" fill="#EB9B82"/>
<path d="M274.992 244.846L276.118 252.946L278.719 251.11L282.91 236.456C282.91 236.456 282.109 223.707 280.449 222.092L277.79 221.267L273.599 222.929C273.587 222.929 279.648 229.39 274.992 244.846Z" fill="#C0493D"/>
<path d="M276.118 252.946L273.459 265.567C273.459 265.567 267.944 277.42 261.686 281.29C261.686 281.29 264.078 286.892 267.805 283.417C271.532 279.942 275.596 267.159 275.398 265.892L277.929 256.897L278.73 251.098L276.118 252.946Z" fill="#EB988A"/>
<path d="M256.88 222.08L274.585 211.935H266.005C266.005 211.935 259.62 217.246 256.88 222.08Z" fill="#CE8976"/>
<path d="M188.889 177.978C195.345 180.221 198.189 179.721 198.189 179.721L202.253 177.827C195.159 172.586 155.045 170.634 149.449 173.736C143.853 176.851 137.908 185.904 137.908 185.904C137.908 185.904 171.009 177.688 175.886 178.025C175.886 178.025 185.847 176.921 188.889 177.978Z" fill="#674637"/>
<path d="M137.908 185.904C137.908 185.904 143.319 171.517 149.182 168.054C155.033 164.591 204.029 163.521 204.029 163.521C204.029 163.521 209.358 162.545 213.259 169.646C213.259 169.646 224.417 181.22 228.875 192.272H227.006L214.896 183.033L207.303 179.745C207.303 179.745 206.7 176.618 202.241 177.815C202.241 177.815 199.269 174.259 175.259 172.644C151.248 171.029 149.437 173.736 149.437 173.736C149.437 173.736 142.448 177.827 137.908 185.904Z" fill="#9F7963"/>
<path d="M41.0659 178.699L50.6677 173.922L60.5133 173.388L79.2873 169.564L89.3303 184.102L86.9037 183.289L70.1731 179.686C70.1731 179.686 61.117 176.665 49.1816 177.327C49.2048 177.339 43.806 178.048 41.0659 178.699Z" fill="#4F372B"/>
<path d="M81.8183 167.705C81.8183 167.705 48.1018 162.371 37.9775 165.044L23.0698 184.416L24.5676 185.915L33.1012 180.674L41.0659 178.699L50.6677 173.922L60.5133 173.388L79.2873 169.564L89.3303 184.102L95.0658 185.764L94.6246 184.312L84.0243 168.763L81.8183 167.705Z" fill="#674A3E"/>
<path d="M93.8931 155.793L126.24 130.924L114.211 152.772L119.982 157.037L136.526 158.28L155.475 160.767L150.459 167.519L149.17 168.054C149.17 168.054 143.226 171.249 137.896 185.904L112.609 165.915L113.584 157.037L93.8931 155.793Z" fill="#E8AA9C"/>
<path d="M150.459 167.531L155.475 160.779L168.56 143.986L170.951 142.255L188.251 147.984L207.617 164.114L204.006 163.533C204.018 163.521 154.186 164.951 150.459 167.531Z" fill="#F9D1BE"/>
<path d="M252.027 227.659L251.492 194.736C251.492 194.736 254.151 161.302 247.638 151.447L237.258 178.489C237.258 178.489 238.988 153.841 234.193 147.717C234.193 147.717 231 133.992 220.214 123.731C220.214 123.731 220.214 139.721 227.006 151.714C227.006 151.714 216.359 138.257 215.024 132.923L195.797 130.122C195.797 130.122 199.362 145.753 206.305 157.699L208.72 164.649C208.72 164.649 212.191 167.252 213.248 169.646C213.248 169.646 225.845 183.37 228.864 192.272H226.995L214.885 183.033L207.292 179.745L214.084 201.499L222.989 216.049L226.6 216.99L250.262 231.819L252.027 227.659Z" fill="#EBC1A8"/>
<path d="M266.005 211.935L265.738 197.374C265.738 197.374 256.357 177.56 258.459 143.719L229.619 136.281C229.619 136.281 233.125 143.312 234.193 147.717C234.193 147.717 239.116 154.782 237.258 178.489L247.638 151.447C247.638 151.447 253.757 161.151 251.492 194.736L252.027 227.659L256.88 222.08L266.005 211.935Z" fill="#9D7151"/>
<path d="M215.024 132.923V122.859L224.545 114.271L252.363 107.81L261.419 120.07L263.95 120.372L266.017 112.539L270.615 127.263L255.452 142.94L229.618 136.281C229.618 136.281 222.478 124.8 220.214 123.731C220.214 123.731 219.726 138.478 227.006 151.714C227.006 151.714 216.801 138.478 215.024 132.923Z" fill="#896043"/>
<path d="M270.592 127.263L275.189 142.255L270.057 179.954L258.459 143.719L255.452 142.94L270.592 127.263Z" fill="#5F4637"/>
<path d="M265.738 197.374L272.124 183.045L270.057 179.954L258.447 143.719C258.459 143.719 255.881 176.549 265.738 197.374Z" fill="#694D3C"/>
<path d="M275.189 142.255L281.842 152.644C281.842 152.644 283.572 159.756 272.124 183.045L270.057 179.954L275.189 142.255Z" fill="#7F614B"/>
<path d="M266.133 112.098L263.474 88.8205L270.998 99.2099C270.998 99.2099 274.922 113.004 275.189 115.061L280.309 131.784C280.309 131.784 285.906 142.243 281.842 152.632L275.189 142.243L270.592 127.252L265.994 112.528L266.133 112.098Z" fill="#8F6C51"/>
<path d="M263.939 120.372L252.653 91.2261L256.38 92.1093L262.406 100.465L266.005 112.539L263.939 120.372Z" fill="#7F5D45"/>
<path d="M224.533 114.271V83.9397L227.354 57.6526L228.771 55.6886L239.778 79.3144L247.591 96.6416L252.363 107.81L224.533 114.271Z" fill="#95735A"/>
<path d="M228.771 55.6886L233.647 56.444C233.647 56.444 259.202 79.756 263.463 88.8205L265.994 112.539L262.395 100.465L256.357 92.1209L252.63 91.2377L263.927 120.384L261.396 120.081L252.34 107.821L228.771 55.6886Z" fill="#5C4132"/>
<path d="M233.659 56.444C230.861 52.3185 218.751 43.7885 218.751 43.7885C215.024 40.186 201.847 34.9913 201.847 34.9913L192.93 33.6549L187.206 35.3864L228.783 55.677L233.659 56.444Z" fill="#856A55"/>
<path d="M187.206 35.3981L179.044 58.9774L224.533 83.9397L227.354 57.6526L228.771 55.6886L187.206 35.3981Z" fill="#5C4536"/>
<path d="M179.044 58.9774L125.172 56.444L164.31 80.3022L179.044 58.9774Z" fill="#38261F"/>
<path d="M164.31 80.3022L224.533 83.9397L179.044 58.9774L164.31 80.3022Z" fill="#4B3529"/>
<path d="M164.31 80.3022L160.177 91.2261L124.243 73.5503L125.172 56.444L164.31 80.3022Z" fill="#4B3529"/>
<path d="M125.172 56.444L158.667 35.3981L179.044 58.9774L125.172 56.444Z" fill="#554237"/>
<path d="M158.667 35.3981L163.37 30.401L172.693 31.4701L179.044 58.9774L158.667 35.3981Z" fill="#3D2C26"/>
<path d="M172.693 31.4701L185.267 32.9925L188.344 35.0494L187.206 35.3981L179.044 58.9774L172.693 31.4701Z" fill="#42322A"/>
<path d="M122.548 98.9542L112.876 102.592L77.9172 110.052L116.069 49.9245L125.171 43.254V56.444L124.243 73.5503L122.548 98.9542Z" fill="#513929"/>
<path d="M125.172 43.254L146.953 27.8908L158.667 35.3981L125.172 56.444V43.254Z" fill="#32241D"/>
<path d="M77.9172 110.052L48.6359 80.3022L116.069 49.9245L77.9172 110.052Z" fill="#6F503A"/>
<path d="M122.548 98.9542L126.228 106.682L129.421 127.995L120.992 140.442L114.2 152.783C114.2 152.783 143.133 124.405 146.326 117.072L150.447 127.868L158.656 98.3383L161.315 93.9803L160.606 112.539L158.389 130.575L165.309 112.632C165.309 112.632 165.042 101.081 166.911 96.6416L180.936 128.797C180.936 128.797 174.818 105.172 172.855 101.534L169.082 89.0995L169.419 86.2406L165.494 80.3836L164.298 80.3139L160.177 91.2377L124.231 73.562L122.548 98.9542Z" fill="#7D553F"/>
<path d="M169.43 86.229L178.01 98.8845L186.73 101.546L192.93 93.8874L197.585 82.3127L165.506 80.372L169.43 86.229Z" fill="#684633"/>
<path d="M178.01 98.8845L187.589 125.869V130.401L185.592 140.395L185.72 145.195L190.375 134.004L195.171 141.197L208.697 164.672L206.282 157.722C206.282 157.722 198.514 144.137 195.774 130.145C195.774 130.145 194.834 130.145 194.404 124.683C193.975 119.222 193.905 96.5719 194.404 95.9095C194.903 95.247 212.075 131.889 212.075 131.889L204.888 111.366L196.366 94.1779L195.054 88.5881L192.93 93.8874L186.741 101.546L178.01 98.8845Z" fill="#855E42"/>
<path d="M197.585 82.3127L224.533 114.271V83.9397L197.585 82.3127Z" fill="#533A2B"/>
<path d="M195.054 88.5881L211.065 115.875L217.126 120.965L224.533 114.271L197.585 82.3127L195.054 88.5881Z" fill="#76523B"/>
<path d="M146.953 27.8908L140.567 23.0912L48.6359 80.3022L116.069 49.9245L146.953 27.8908Z" fill="#573B2C"/>
<path d="M77.9172 110.052L84.303 138.385L66.063 160.767L70.1847 159.036L88.5524 139.314L109.335 110.052H111.065C111.065 110.052 94.2879 150.912 93.8931 152.772L107.547 133.98L125.775 105.694L122.548 98.9309L112.876 102.568L77.9172 110.052Z" fill="#654533"/>
<path d="M5.32916 129.146L0 151.714V156.862L45.8146 99.6631L28.6428 109.076L5.32916 129.146Z" fill="#775942"/>
<path d="M48.6359 80.3022L25.1829 112.051L28.6428 109.076L45.8146 99.6631L77.9173 142.255L84.303 138.385L77.9173 110.052L48.6359 80.3022Z" fill="#5E4030"/>
<path d="M45.8146 99.6631L26.6226 152.783L22.9073 156.874C22.9073 156.874 23.511 185.392 20.5852 187.426L17.1253 174.631C17.1253 174.631 15.7901 174.097 15.0006 174.457L12.6901 175.573L8.78906 175.108L2.75166 168.507L1.50935 163.091L0 160.151V156.862L45.8146 99.6631Z" fill="#88654C"/>
<path d="M26.6226 152.772L25.1829 158.408L33.1012 145.834L27.6908 169.553L36.0735 167.507L37.9892 165.021C37.9892 165.021 45.2921 163.858 53.4658 164.509L77.9173 142.243L45.8146 99.6631L26.6226 152.772Z" fill="#684B39"/>
<path d="M41.6929 111.075L45.8146 151.528L77.9173 142.255L45.8146 99.6631L41.6929 111.075Z" fill="#513627"/>
<path d="M17.5897 206.787L20.5852 187.426C20.5852 187.426 23.8129 178.896 22.9073 156.874L26.6226 152.783L25.1829 158.42L33.1012 145.846L27.6908 169.564L36.0734 167.519L23.0814 184.405L24.5792 185.904L33.1128 180.663V191.494L31.6035 205.044L30.9417 211.133L29.6529 225.439C29.6529 225.439 22.3268 213.934 19.5403 213.539L19.8073 208.716L17.5897 206.787Z" fill="#DFCABE"/>
<path d="M5.32916 129.146L30.93 73.8409L33.1012 59.663L72.2166 43.254L38.8715 71.4585L25.1829 112.051L5.32916 129.146Z" fill="#8C6D53"/>
<path d="M48.6359 80.3022L83.8037 44.695L140.567 23.0912L48.6359 80.3022Z" fill="#79563E"/>
<path d="M25.1829 112.051L38.8716 71.4585L72.2166 43.254L140.567 23.0912L83.8037 44.695L48.6359 80.3022L25.1829 112.051Z" fill="#5A3C2B"/>
<path d="M140.567 23.0912L76.315 26.6473L52.8853 47.1935L68.687 38.1988L76.1408 31.4701L86.4393 30.401L140.567 23.0912Z" fill="#705039"/>
<path d="M140.567 23.0912L88.2041 30.1569L68.687 38.1988L52.8853 47.1935L33.1012 59.663L72.2166 43.254L140.567 23.0912Z" fill="#86674F"/>
<path d="M59.8051 31.4701L82.3524 19.5468L74.1903 18.8263L67.9788 21.8478L70.2892 15.4561L76.5008 14.0384L140.567 23.0913L76.315 26.6473L78.6255 23.0913L59.8051 31.4701Z" fill="#8D6B4D"/>
<path d="M76.5008 14.0384L100.186 6.21732L95.925 0L105.422 2.31261L140.567 23.0912L76.5008 14.0384Z" fill="#916E51"/>
<path d="M105.422 2.31261L129.734 5.50843L159.91 25.0552L163.277 20.2557V25.0552L181.54 16.351L171.091 25.0552C171.091 25.0552 179.961 27.1819 182.631 26.2987C185.29 25.4155 195.763 23.9861 195.763 23.9861L205.341 33.6665L193.8 30.401L189.714 31.4701L192.906 33.6665L188.332 35.0494L185.255 33.0041L172.681 31.4701L163.358 30.401L158.656 35.3981L146.953 27.8908L140.567 23.0913L105.422 2.31261Z" fill="#6A5240"/>
<path d="M77.1161 158.373L59.8051 164.997L81.8183 167.705L77.1161 158.373Z" fill="#D7A390"/>
<path d="M53.4658 164.521L77.9173 142.255L84.303 138.385L66.0631 160.767L70.1964 159.036L88.564 139.326L109.335 110.052H111.065L93.8932 152.772L107.547 133.992L125.775 105.706L126.24 106.682L129.433 127.995L126.24 130.924L93.8932 155.793L82.7124 156.769L77.1162 158.373L59.8051 164.997L53.4658 164.521Z" fill="#B27364"/>
<path d="M114.211 152.772L135.969 130.273L135.273 158.187L119.982 157.037L114.211 152.772Z" fill="#D4937E"/>
<path d="M135.273 158.187L150.459 127.868L146.337 117.072L135.969 130.273L135.273 158.187Z" fill="#BB7E68"/>
<path d="M157.483 158.187L158.4 130.575L160.618 112.539L161.338 93.9803L158.667 98.3267L150.459 127.868L135.273 158.187L155.475 160.767L157.483 158.187Z" fill="#D2927C"/>
<path d="M185.731 145.183L185.325 147.008L188.262 147.984L207.628 164.102L208.72 164.66L195.182 141.185L190.399 133.992L185.731 145.183Z" fill="#DAA187"/>
<path d="M170.963 142.255C170.963 142.255 170.94 116.979 165.332 112.632L158.447 130.273L157.495 158.187L168.571 143.986L170.963 142.255Z" fill="#E6B097"/>
<path d="M170.429 130.924L177.209 120.221L166.922 96.6416C166.922 96.6416 165.285 100.325 165.32 112.632C165.32 112.632 168.687 113.144 170.429 130.924Z" fill="#C68870"/>
<path d="M62.4058 209.018L65.2039 209.402L68.2691 208.716L68.9308 206.473L68.5361 203.266L65.9354 201.987L62.4058 202.278L60.5482 203.649V205.695L61.2796 207.705L62.4058 209.018Z" fill="black"/>
<path d="M68.5361 203.266H70.5911L71.1948 204.277V205.695L70.1964 206.206L68.9308 206.473L68.5361 203.266Z" fill="white"/>
<path d="M173.088 206.032L173.424 208.1L174.469 209.832L176.28 210.634L178.277 211.052L180.147 210.634L181.343 209.332L182.295 207.74V205.602L181.412 204.207L179.868 203.068H177.952L175.758 203.335L174.469 204.207L173.088 206.032Z" fill="black"/>
<path d="M182.295 205.602L183.386 205.067H184.675L185.731 206.032V207.298L185 208.6H183.607L182.689 207.996L182.295 207.74V205.602Z" fill="white"/>
<path d="M58.0983 321.72L67.3982 318.629L79.6936 315.677L97.4807 309.332L108.081 291.749V285.648L104.099 286.543C104.099 286.543 100.801 288.809 99.4777 292.272L74.9798 303.196C74.9798 303.196 62.2084 309.053 58.0054 312.656L58.0983 321.72Z" fill="#BE917A"/>
<path d="M112.725 285.613L123.709 309.867L138.547 312.54L155.521 318.873L166.899 321.651L177 329.355L177.035 320.57L176.64 317.409L165.239 305.997L127.703 289.076L119.715 287.415L112.725 285.613Z" fill="#E5AE94"/>
<path d="M108.093 291.738C108.093 291.738 111.204 296.096 110.891 297.955C110.577 299.826 109.428 307.775 105.875 309.32L112.725 313.004L122.629 307.473L112.725 285.602L108.093 285.637V291.738Z" fill="#C68677"/>
<path d="M85.3711 325.16C85.3711 325.16 86.8804 327.403 88.7845 327.275C88.7845 327.275 91.8497 331.935 92.3838 336.247C92.3838 336.247 93.1268 341.302 94.9729 340.965C94.9729 340.965 100.72 334.515 109.997 331.621C109.997 331.621 124.684 331.749 128.724 333.307C128.724 333.307 139.51 327.403 140.567 325.625C140.567 325.625 132.393 324.73 128.364 325.974C128.364 325.974 126.24 325.404 112.458 328.309C112.458 328.309 107.559 329.867 104.18 326.322C104.18 326.322 87.1823 324.335 86.5205 324.73L85.3711 325.16Z" fill="#C85E63"/>
<path d="M170.963 227.659C170.963 227.659 174.098 223.893 175.27 223.219C176.443 222.545 180.553 219.93 182.817 220.419L189.83 217.827C189.83 217.827 194.776 215.875 195.565 214.434L199.989 212.702V211.9L203.251 210.912L204.981 211.18C204.981 211.18 206.2 212.133 208.395 211.9L208.639 212.33C208.639 212.33 211.797 213.818 197.109 218.664C197.109 218.664 187.566 222.011 184.686 228.309C184.675 228.321 172.948 228.565 170.963 227.659Z" fill="#CEA59D"/>
<path d="M170.963 142.255L170.429 130.924L177.209 120.221L180.948 128.797C180.948 128.797 173.935 102.324 172.867 101.534L169.094 89.0995L169.43 86.2406L178.01 98.8961L187.589 125.88V130.413L185.592 140.407L185.72 145.206L185.313 147.031L170.963 142.255Z" fill="#DBA38B"/>
<path d="M195.797 130.122C195.797 130.122 194.625 129.123 194.427 124.66C194.23 120.198 193.858 99.3493 194.427 95.8862C194.427 95.8862 210.229 126.531 212.098 131.865L204.912 111.342L196.39 94.1547L195.054 88.5881L211.065 115.863L217.126 120.965L215.024 122.859V132.923L195.797 130.122Z" fill="#CC9479"/>
<path d="M58.0983 321.72H71.7057L75.9667 320.837C75.9667 320.837 77.7083 318.222 85.9168 316.038C85.9168 316.038 87.461 314.352 96.4706 311.773C96.4706 311.773 97.504 309.902 104.099 312.656C104.099 312.656 107.338 313.283 111.727 315.503C111.727 315.503 120.806 313.028 121.224 312.656C121.224 312.656 132.114 312.086 140.66 316.386C140.66 316.386 149.309 321.674 162.58 321.627L166.911 321.651L155.533 318.873L138.558 312.528L123.72 309.855L122.64 307.484L112.737 313.016L105.887 309.332C105.887 309.332 109.3 308.484 110.902 297.967C110.902 297.967 111.076 296.014 108.104 291.749L97.504 309.332L79.7169 315.677L67.4215 318.629L58.0983 321.72Z" fill="#EEB5A1"/>
<path d="M83.7689 265.404C83.7689 265.404 93.3474 261.035 96.9467 262.429L104.401 241.418C104.401 241.418 102.473 222.324 103.205 215.398C103.205 215.398 102.613 212.714 100.012 213.457L95.5766 220.384L90.9325 226.845L84.8254 234.98C84.8254 234.98 80.2509 239.838 81.2726 248.704V259.896C81.2843 259.896 80.7734 264.986 83.7689 265.404Z" fill="#D1B1B1"/>
<path d="M83.7689 265.404C83.7689 265.404 93.092 261.093 96.9467 262.429C96.9467 262.429 97.3414 266.067 100.72 268.693L105.155 277.304C105.155 277.304 103.739 277.478 101.602 275.549C101.602 275.549 100.163 271.04 96.6448 268.693C96.6448 268.693 86.0329 266.032 85.5685 269.82C85.5685 269.82 86.2187 272.609 83.8386 273.853C83.8386 273.853 82.5266 269.936 83.7689 265.404Z" fill="#EBC3B5"/>
<path d="M83.7689 265.404C83.7689 265.404 91.4434 247.682 95.8321 245.067C100.221 242.452 104.401 241.43 104.401 241.43L96.9467 262.441C96.9467 262.429 94.0673 260.918 83.7689 265.404Z" fill="#C79590"/>
<path d="M68.3271 451.889L53.8257 481.279L52.4905 478.804L51.2947 472.807V466.95L54.6152 447.624L63.8107 441.5L67.793 437.107L68.3271 451.889Z" fill="#4B3230"/>
<path d="M137.211 379.733C135.284 373.469 132.358 372.133 128.295 372.133C124.231 372.133 124.173 373.934 124.324 375.863C124.475 377.792 124.324 379.257 124.324 379.257C128.539 383.789 133.635 384.812 133.635 384.812C133.635 384.812 136.283 384.451 136.619 383.196C136.956 381.929 137.211 379.733 137.211 379.733Z" fill="#FCDED2"/>
<path d="M142.436 278.28L143.969 274.724H145.002L143.713 279.001L142.436 278.28Z" fill="#F7CBAF"/>
</g>
<defs>
<clipPath id="clip0_381_288">
<rect width="285" height="581" fill="white"/>
</clipPath>
</defs>
</svg>
