<svg width="620" height="528" viewBox="0 0 620 528" fill="none" xmlns="http://www.w3.org/2000/svg">
<path d="M483 40.6699L423 5.66986L455 40.6699H483Z" stroke="black"/>
<path d="M130.5 146.17L141.5 130.67L174 146.17H130.5Z" stroke="black"/>
<path d="M81.5 125.17L91.5 54.1699L67.5 35.6699V84.6699L49.5 108.67L81.5 125.17Z" stroke="black"/>
<path d="M155.5 325.17L133 312.67L111 346.17L119 407.67L155.5 325.17Z" stroke="black"/>
<path d="M490 221.67L506 165.67H519L506 197.67L519 221.67H490Z" stroke="black"/>
<path d="M466 334.17L502.5 265.67V295.17L513 334.17H466Z" stroke="black"/>
<path d="M478.5 440.67L452 472.67L496 451.17L478.5 440.67Z" stroke="black"/>
<path d="M202 525.67L147 455.67L163 439.67L202 499.67V525.67Z" stroke="black"/>
<path d="M597.261 209.041L516.986 93.6699L504.756 107.551L569.792 222.823L597.261 209.041Z" stroke="black"/>
<path d="M471.5 75.1699L488 53.1699L539.5 44.1699V75.1699L499.5 65.6699L528 88.6699L471.5 75.1699Z" stroke="black"/>
<path d="M176.5 403.67L211 354.67V369.17L200 403.67H176.5Z" stroke="black"/>
<path d="M15.2063 241.096L109.504 147.483L138.019 182.982L79.8372 212.454L123.341 226.97L80.9556 313.682L15.2063 241.096Z" stroke="black"/>
<path d="M492.5 103.17H469.5L463 113.17L478 121.67L492.5 103.17Z" stroke="black"/>
<path d="M171.644 257.825L165.416 304.838L133.872 204.164L146.277 200.277L154.362 242.805L171.644 257.825Z" stroke="black"/>
<path d="M198.5 1.66986L136 76.6699L168.5 96.6699L176 83.1699L160.5 76.6699V60.1699L192.5 44.1699L198.5 1.66986Z" stroke="black"/>
<path d="M458.435 376.93L429.091 361.433L431.515 350.292L456.462 338.981L463.544 359.642L458.435 376.93Z" stroke="black"/>
</svg>
