<svg width="289" height="588" viewBox="0 0 289 588" fill="none" xmlns="http://www.w3.org/2000/svg">
<g clip-path="url(#clip0_381_51)">
<path d="M69.0519 442.161L65.0183 382.979L66.6364 383.612C66.6364 383.612 76.4038 399.308 91.3774 408.177L85.9953 466.456L69.2395 451.3L69.0519 442.161Z" stroke="#010202" stroke-miterlimit="10"/>
<path d="M91.3773 408.177L109.751 454.537L135.02 413.655C135.02 413.655 111.358 415.896 91.9167 408.189H91.3773V408.177Z" stroke="#010202" stroke-width="0.75" stroke-miterlimit="10"/>
<path d="M85.9952 466.456L115.978 493.402L109.751 454.537L91.3773 408.177L85.9952 466.456Z" stroke="#010202" stroke-miterlimit="10"/>
<path d="M85.9953 466.456L90.1579 522.858L86.9334 520.571L69.5913 457.095L69.2395 451.311L85.9953 466.456Z" stroke="#010202" stroke-miterlimit="10"/>
<path d="M90.1578 522.858L99.1748 529.181L110.197 521.509L85.9952 466.456L90.1578 522.858Z" stroke="#010202" stroke-miterlimit="10"/>
<path d="M110.197 521.509L149.712 500.171L145.596 477.401L115.978 493.402L85.9952 466.456L110.197 521.509Z" stroke="#010202" stroke-miterlimit="10"/>
<path d="M109.751 454.537L141.316 479.712L115.978 493.402L109.751 454.537Z" stroke="#010202" stroke-miterlimit="10"/>
<path d="M136.802 476.111L190.411 417.151L164.709 494.399L149.712 500.171L145.596 477.401L141.316 479.712L136.802 476.111Z" stroke="#010202" stroke-miterlimit="10"/>
<path d="M149.712 500.171L151.729 506.587L188.371 484.932L164.709 494.399L149.712 500.171Z" stroke="#010202" stroke-miterlimit="10"/>
<path d="M232.166 348.103C223.208 408.353 247.62 437.141 247.62 437.141L188.359 484.932L164.697 494.399L190.4 417.151L136.802 476.111L109.751 454.538L135.02 413.655C135.02 413.655 182.696 414.465 233.245 342.015L232.166 348.103Z" stroke="#010202" stroke-miterlimit="10"/>
<path d="M69.0518 442.161L65.0299 446.596L55.7433 452.79L52.3898 472.286V478.21L53.5975 484.264L65.0299 505.508L86.9333 520.571L69.5912 457.095L69.0518 442.161Z" stroke="#010202" stroke-miterlimit="10"/>
<path d="M99.1748 529.181L123.728 545.006L130.728 510.423L110.197 521.509L99.1748 529.181Z" stroke="#010202" stroke-miterlimit="10"/>
<path d="M139.147 539.716C126.777 549.394 123.728 545.006 123.728 545.006L130.728 510.423L149.724 500.171L151.741 506.576L139.147 539.716Z" stroke="#010202" stroke-miterlimit="10"/>
<path d="M139.147 539.716L155.364 528.689L148.645 514.705L139.147 539.716Z" stroke="#010202" stroke-miterlimit="10"/>
<path d="M155.364 528.689L165.671 522.319L160.101 501.637L151.729 506.588L148.645 514.705L155.364 528.689Z" stroke="#010202" stroke-miterlimit="10"/>
<path d="M233.151 474.445C225.26 478.75 187.715 511.022 187.715 511.022L165.67 522.319L160.101 501.637L188.371 484.932L193.882 480.486L233.151 474.445Z" stroke="#010202" stroke-miterlimit="10"/>
<path d="M254.914 446.936C255.254 448.555 251.22 460.52 251.22 460.52L248.734 464.016L233.163 474.445L193.882 480.486L241.535 442.056L247.632 437.141L254.914 446.936Z" stroke="#010202" stroke-miterlimit="10"/>
<path d="M242.403 428.929L241.535 442.056L247.632 437.141L242.403 428.929Z" stroke="#010202" stroke-miterlimit="10"/>
<path d="M175.579 399.297L212.268 276.908L234.265 280.087L241.934 318.154C241.934 318.154 238.791 330.342 233.245 342.003C227.687 353.663 190.013 393.15 175.579 399.297Z" stroke="#010202" stroke-miterlimit="10"/>
<path d="M234.277 280.099L255.113 230.735L253.905 245.399C253.905 245.399 243.821 316.418 241.945 318.166L234.277 280.099Z" stroke="#010202" stroke-miterlimit="10"/>
<path d="M212.28 276.92L213.347 273.189L198.244 269.694L176.423 300.945L179.378 324.524L179.343 333.404L169.141 325.626L140.976 347.552L180.773 370.744L134.187 368.257L140.507 374.709L171.498 393.208L178.979 387.953L212.28 276.92Z" stroke="#010202" stroke-miterlimit="10"/>
<path d="M134.187 368.257L131.033 364.292L140.976 347.552L180.773 370.744L134.187 368.257Z" stroke="#010202" stroke-miterlimit="10"/>
<path d="M66.6364 383.612C66.6364 383.612 95.1412 396.704 99.5735 403.297L98.7527 410.464C98.7527 410.464 82.501 408.048 66.6364 383.612Z" stroke="#010202" stroke-miterlimit="10"/>
<path d="M99.5735 403.297C99.5735 403.297 110.596 408.494 114.77 408.189L111.088 412.951C111.088 412.951 103.548 412.001 98.7527 410.476L99.5735 403.297Z" stroke="#010202" stroke-miterlimit="10"/>
<path d="M114.77 408.177H124.185L135.032 413.644C135.032 413.644 114.137 414.512 111.1 412.94L114.77 408.177Z" stroke="#010202" stroke-miterlimit="10"/>
<path d="M135.02 413.655C135.02 413.655 149.302 412.541 159.901 407.391L154.015 401.819C154.015 401.819 131.971 409.714 124.174 408.189L135.02 413.655Z" stroke="#010202" stroke-miterlimit="10"/>
<path d="M159.901 407.391C161.754 407.321 175.579 399.297 175.579 399.297L196.368 376.668C166.655 399.261 154.027 401.819 154.027 401.819L159.901 407.391Z" stroke="#010202" stroke-miterlimit="10"/>
<path d="M196.368 376.668L228.566 348.537C228.566 348.537 209.383 376.609 175.59 399.297L196.368 376.668Z" stroke="#010202" stroke-miterlimit="10"/>
<path d="M65.03 382.991L52.5774 367.119C52.5774 367.119 30.1699 328.747 28.3759 316.547L65.03 382.991Z" stroke="#010202" stroke-miterlimit="10"/>
<path d="M56.9511 368.362C61.6999 360.104 58.4754 299.338 58.4754 299.338L45.2138 301.308L39.8317 272.79L21.0122 270.82L28.3641 316.547L56.9511 368.362Z" stroke="#010202" stroke-miterlimit="10"/>
<path d="M59.261 352.772L73.0033 325.685H59.261V352.772Z" stroke="#010202" stroke-miterlimit="10"/>
<path d="M176.423 300.945L164.24 285.343L150.791 255.218L148.645 230.735L206.534 257.012L198.244 269.694L176.423 300.945Z" stroke="#010202" stroke-miterlimit="10"/>
<path d="M39.8435 272.791L38.9523 260.778C38.9523 260.778 30.8851 245 30.5334 242.666C30.1816 240.331 30.5334 228.495 30.5334 228.495C30.5334 228.495 23.7208 217.198 20.3204 216.482C20.3204 216.482 17.3656 254.678 21.0357 270.82L39.8435 272.791Z" stroke="black" stroke-miterlimit="10"/>
<path d="M59.179 316.547C59.179 316.547 73.4959 307.268 76.3217 306.998L101.063 295.971L96.7594 293.554L77.7991 288.17L59.179 316.547Z" stroke="black" stroke-miterlimit="10"/>
<path d="M38.9406 260.778C38.9406 260.778 40.8284 265.705 77.7873 288.17L59.1672 316.547L58.4753 299.326L45.2137 301.297L39.8317 272.779L38.9406 260.778Z" stroke="black" stroke-miterlimit="10"/>
<path d="M38.9406 260.778L81.0588 237.469C81.0588 237.469 80.8829 251.452 82.6769 251.992V263.288C82.6769 263.288 82.501 269.025 85.1862 268.849C85.1862 268.849 81.692 278.269 91.2835 285.26C91.2835 285.26 98.096 288.616 96.7476 293.554L77.7873 288.17C77.7991 288.17 40.3828 265.435 38.9406 260.778Z" stroke="black" stroke-miterlimit="10"/>
<path d="M30.5216 228.495L31.8231 214.054C31.8231 214.054 36.9355 231.803 53.5975 233.691L38.9406 260.766L30.5216 242.654V228.495Z" stroke="black" stroke-miterlimit="10"/>
<path d="M87.7423 329.193C84.3771 328.653 78.1977 333.228 78.1977 333.228C76.99 331.21 71.9246 327.808 71.9246 327.808C71.9246 327.808 76.4037 327.046 78.7254 327.808C81.047 328.571 85.6317 328.348 85.9835 327.855L87.9534 328.747L87.7423 329.193Z" stroke="black" stroke-miterlimit="10"/>
<path d="M126.331 349.135C130.623 348.197 125.522 344.478 125.522 344.478L130.588 337.393C123.998 335.551 111.674 335.692 111.674 335.692C97.9671 340.396 94.4612 348.021 94.4612 348.021C94.4612 348.021 114.5 351.74 126.331 349.135Z" stroke="black" stroke-miterlimit="10"/>
<path d="M78.1978 333.228C78.1978 333.228 92.3271 347.669 94.4611 348.021C94.4611 348.021 96.0792 345.593 96.5014 345.123C96.5014 345.123 94.7777 345.604 93.8866 340.361C92.9954 335.117 90.2516 331.304 90.2516 331.304C90.2516 331.304 89.1377 331.832 86.8043 329.169C86.8043 329.158 82.7238 329.685 78.1978 333.228Z" stroke="black" stroke-miterlimit="10"/>
<path d="M130.588 337.393C130.588 337.393 141.211 331.785 142.548 329.638C142.548 329.638 153.57 330.354 157.603 328.653C157.603 328.653 164.428 329.298 166.784 327.468L140.977 347.552C140.977 347.552 128.606 349.757 128.008 348.021C127.398 346.285 127.938 346.719 125.522 344.478L130.588 337.393Z" stroke="black" stroke-miterlimit="10"/>
<path d="M154.273 337.193L130.224 348.678C130.224 348.678 138.901 348.291 140.976 347.552L154.273 337.193Z" stroke="black" stroke-miterlimit="10"/>
<path d="M113.421 319.409C113.421 319.409 122.743 316.899 123.013 316.535C123.283 316.171 134.938 316.359 142.641 320.301C150.345 324.242 161.825 326.577 164.779 325.591C164.779 325.591 161.461 328.102 132.78 327.832L121.043 329.721C121.043 329.721 120.234 326.412 113.421 319.409Z" stroke="black" stroke-miterlimit="10"/>
<path d="M121.043 329.721C105.354 331.152 96.9352 326.319 96.9352 326.319C96.1261 321.568 98.014 315.644 98.014 315.644C99.9018 314.119 104.827 316.535 105.718 316.535C106.609 316.535 113.421 319.409 113.421 319.409L118.78 325.685L121.043 329.721Z" stroke="black" stroke-miterlimit="10"/>
<path d="M98.0023 315.644C98.0023 315.644 89.595 318.33 87.3437 319.949L84.4709 325.685C84.4709 325.685 87.5196 327.75 91.2366 326.764C94.9536 325.779 96.9235 326.319 96.9235 326.319C96.9235 326.319 95.8565 323.093 98.0023 315.644Z" stroke="black" stroke-miterlimit="10"/>
<path d="M87.3437 319.949C82.8763 321.11 76.7556 324.078 77.2949 324.794C77.8343 325.509 84.4593 325.685 84.4593 325.685L87.3437 319.949Z" stroke="black" stroke-miterlimit="10"/>
<path d="M71.5729 327.457L73.0034 325.685L77.3067 324.794C77.3067 324.794 82.2314 325.873 84.471 325.685C84.471 325.685 87.0154 327.292 89.126 327.022C91.2366 326.753 94.8598 325.955 96.9235 326.307C96.9235 326.307 103.115 329.204 106.339 329.24L105.8 330.331C105.8 330.331 97.1932 329.087 87.9652 328.723L85.9953 327.832C85.9953 327.832 82.1376 328.911 78.7372 327.785C75.3368 326.659 71.5729 327.457 71.5729 327.457Z" stroke="black" stroke-miterlimit="10"/>
<path d="M164.779 325.603L169.153 325.626L166.796 327.468C165.377 329.169 157.615 328.653 157.615 328.653C156.829 329.052 148.586 330.8 142.559 329.638C136.533 328.477 130.236 329.99 130.236 329.99C127.949 329.721 120.422 331.199 114.172 332.348C107.922 333.486 105.812 330.342 105.812 330.342L106.351 329.251C106.351 329.251 116.013 330.53 121.043 329.732C126.073 328.923 129.556 328.184 132.78 327.844C136.005 327.503 158.049 328.196 164.779 325.603Z" stroke="black" stroke-miterlimit="10"/>
<path d="M109.751 407.285C112.905 408.165 97.5684 390.381 97.5684 390.381H94.4729V398.734C94.4729 398.734 97.1581 400.329 99.5852 403.297C99.5735 403.297 108.309 406.898 109.751 407.285Z" stroke="black" stroke-miterlimit="10"/>
<path d="M94.4612 390.381C94.4612 390.381 97.0994 364.69 98.0023 364.151C98.8935 363.611 113.199 359.717 113.199 359.717C113.199 359.717 110.502 366.169 111.088 369.664C111.674 373.16 97.5567 390.381 97.5567 390.381H94.4612Z" stroke="black" stroke-miterlimit="10"/>
<path d="M98.0023 364.151L94.4611 348.009C94.4611 348.009 86.7926 342.894 78.1978 333.216C78.1978 333.216 73.3199 327.949 71.9246 327.797L59.2493 352.772C59.2493 352.772 58.5223 366.028 56.9393 368.362L65.0065 382.991C65.0065 382.991 89.3371 394.182 94.4494 398.745V390.393C94.4611 390.381 97.158 364.479 98.0023 364.151Z" stroke="black" stroke-miterlimit="10"/>
<path d="M98.0023 364.151L94.4612 348.009C94.4612 348.009 114.488 350.977 120.41 350.05C120.41 350.062 117.009 349.499 98.0023 364.151Z" stroke="black" stroke-miterlimit="10"/>
<path d="M113.199 359.717C113.199 359.717 129.415 360.655 131.033 364.292C131.033 364.292 120.058 349.147 114.77 352.479C109.47 355.81 98.014 364.163 98.014 364.163L113.199 359.717Z" stroke="black" stroke-miterlimit="10"/>
<path d="M131.033 364.292L140.976 347.552C140.976 347.552 131.385 348.783 130.224 348.678C129.063 348.572 127.492 348.69 127.492 348.69C127.492 348.69 122.38 350.355 120.41 350.062C118.44 349.769 115.614 351.998 115.614 351.998C115.614 351.998 121.219 350.707 131.033 364.292Z" stroke="black" stroke-miterlimit="10"/>
<path d="M109.751 407.285C109.751 407.285 115.661 408.822 126.155 408.365L115.978 387.73C115.978 387.742 112.26 406.312 109.751 407.285Z" stroke="black" stroke-miterlimit="10"/>
<path d="M126.144 408.365C126.144 408.365 132.769 408.306 135.547 407.168L117.279 390.381L126.144 408.365Z" stroke="black" stroke-miterlimit="10"/>
<path d="M111.088 369.676L114.77 367.482L123.646 370.755L140.519 374.72L134.199 368.268L122.239 360.772L113.199 359.728C113.199 359.716 110.549 365.054 111.088 369.676Z" stroke="black" stroke-miterlimit="10"/>
<path d="M134.187 368.257L122.227 360.761C122.227 360.761 128.981 361.723 131.021 364.292C133.073 366.861 134.187 368.257 134.187 368.257Z" stroke="black" stroke-miterlimit="10"/>
<path d="M154.015 401.819L135.548 391.144L127.058 399.379L135.548 407.168C135.548 407.168 150.709 403.52 154.015 401.819Z" stroke="black" stroke-miterlimit="10"/>
<path d="M139.159 386.017C137.213 379.694 134.258 378.345 130.154 378.345C126.05 378.345 125.991 380.164 126.144 382.111C126.296 384.058 126.144 385.536 126.144 385.536C130.4 390.111 135.547 391.144 135.547 391.144C135.547 391.144 138.221 390.78 138.561 389.513C138.901 388.234 139.159 386.017 139.159 386.017Z" stroke="black" stroke-miterlimit="10"/>
<path d="M66.1439 399.379L36.6658 431.357C36.6658 431.357 22.2785 478.41 47.4181 501.637C47.4181 501.637 41.7664 462.737 55.755 452.778C69.7319 442.83 69.0635 442.15 69.0635 442.15L66.1439 399.379Z" stroke="black" stroke-miterlimit="10"/>
<path d="M36.6542 431.357C36.6542 431.357 28.1766 417.21 48.3446 401.819C48.3446 401.819 62.8843 392.059 65.628 392.035L66.1322 399.379L36.6542 431.357Z" stroke="black" stroke-miterlimit="10"/>
<path d="M52.3899 478.21L51.5808 483.994L63.8106 508.875L82.5011 523.093L115.978 540.619L65.03 505.508L53.5976 484.264L52.3899 478.21Z" stroke="black" stroke-miterlimit="10"/>
<path d="M63.8105 508.875L72.4171 531.058L83.7792 539.716L82.5011 523.093L63.8105 508.875Z" stroke="black" stroke-miterlimit="10"/>
<path d="M83.7792 539.716L115.978 540.619L82.5011 523.093L83.7792 539.716Z" stroke="black" stroke-miterlimit="10"/>
<path d="M72.4171 531.058L50.8069 512.5C50.8069 512.5 49.2943 510.283 47.4064 501.637C45.5186 492.991 44.1819 460.579 55.7433 452.778L52.3781 472.275V478.187L51.569 483.97L63.7988 508.852L72.4171 531.058Z" stroke="black" stroke-miterlimit="10"/>
<path d="M83.7792 539.716L130.728 569.125L141.246 564.691L169.036 529.181L187.715 511.022L165.671 522.319L155.364 528.689L139.147 539.716C139.147 539.716 129.239 548.549 123.728 545.006C118.229 541.463 115.978 540.607 115.978 540.607L83.7792 539.716Z" stroke="black" stroke-miterlimit="10"/>
<path d="M50.8069 512.5L79.1358 555.81L63.8105 547.071L50.8069 512.5Z" stroke="black" stroke-miterlimit="10"/>
<path d="M73.8007 565.23L79.1359 555.81L63.8105 547.071L73.8007 565.23Z" stroke="black" stroke-miterlimit="10"/>
<path d="M73.8007 565.23L77.7991 570.474L130.728 569.125L83.7791 539.716L79.1358 555.81L73.8007 565.23Z" stroke="black" stroke-miterlimit="10"/>
<path d="M79.1358 555.81L83.7792 539.716L72.4171 531.058L50.8069 512.5L79.1358 555.81Z" stroke="black" stroke-miterlimit="10"/>
<path d="M77.7991 570.474L86.945 586.886C86.945 586.886 88.4224 588.094 90.7089 586.886C92.9954 585.677 130.74 569.137 130.74 569.137L77.7991 570.474Z" stroke="black" stroke-miterlimit="10"/>
<path d="M232.905 401.69L251.349 403.426C251.349 403.426 267.753 408.67 273.534 413.913C279.315 419.157 280.124 422.97 280.393 437.141L254.914 446.936L264.658 427.908L259.956 410.019L232.905 401.69Z" stroke="black" stroke-miterlimit="10"/>
<path d="M232.905 401.69C232.905 401.69 235.895 425.081 254.914 446.936L264.658 427.908L259.956 410.019L232.905 401.69Z" stroke="black" stroke-miterlimit="10"/>
<path d="M251.22 460.52L282.398 442.701L280.382 437.141L254.914 446.936L251.22 460.52Z" stroke="black" stroke-miterlimit="10"/>
<path d="M109.751 407.285C109.751 407.285 110.115 404.681 97.5685 390.381C97.5685 390.381 110.736 374.286 111.1 369.664L114.782 367.471L123.658 370.744L140.531 374.709L171.522 393.197C171.522 393.197 160.769 400.282 154.051 401.807L135.583 391.132L127.093 399.367L117.303 390.369L116.001 387.73C115.978 387.742 113.691 401.291 109.751 407.285Z" stroke="black" stroke-miterlimit="10"/>
<path d="M202.782 255.3L187.093 231.416L253.331 234.947L206.534 257.012L202.782 255.3Z" stroke="#010202" stroke-miterlimit="10"/>
<path d="M206.534 257.012L253.331 234.947L234.277 280.099L212.28 276.92L213.347 273.189L198.244 269.694L206.534 257.012Z" stroke="#010202" stroke-miterlimit="10"/>
<path d="M129.556 292.745L167.465 309.825L166.784 307.268L149.982 286.011L129.556 292.745Z" stroke="#010202" stroke-miterlimit="10"/>
<path d="M129.556 292.745C129.556 292.745 142.817 284.627 144.436 281.847C144.436 281.847 148.164 285.871 147.695 286.774C147.203 287.677 129.556 292.745 129.556 292.745Z" stroke="#010202" stroke-miterlimit="10"/>
<path d="M167.465 309.825L178.991 321.345L176.435 300.945L164.252 285.343L150.814 255.218C150.814 255.218 145.526 258.889 146.065 261.13C146.605 263.371 150.099 279.782 144.447 281.847C144.447 281.847 148.094 285.788 147.707 286.774L150.005 286.011L166.808 307.256L167.465 309.825Z" stroke="#010202" stroke-miterlimit="10"/>
<path d="M98.4948 265.846C98.4948 265.846 98.7175 268.943 102.306 272.169L104.815 271.359C104.815 271.359 116.646 259.347 116.74 257.646C116.834 255.945 115.931 237.832 115.931 237.832L117.901 214.699C117.901 214.699 117.901 211.555 118.534 207.344C119.167 203.132 119.683 198.112 119.683 198.112L109.095 192.645L104.827 218.383C104.827 218.383 104.651 236.941 106.034 244.648L98.4948 265.846Z" stroke="black" stroke-miterlimit="10"/>
<path d="M129.556 292.745C129.556 292.745 122.192 291.701 121.489 291.067C120.785 290.434 114.43 289.249 114.43 289.249L128.078 284.404C128.078 284.404 128.981 283.794 128.923 282.492C128.852 281.178 133.531 277.108 137.459 280.709C137.459 280.709 137.623 278.996 138.092 277.213C138.561 275.43 136.849 274.386 135.465 274.151C135.465 274.151 137.048 273.107 141.481 274.726C145.913 276.345 145.983 275.7 145.983 275.7V278.257L144.424 281.859C144.436 281.847 135.7 289.777 129.556 292.745Z" stroke="black" stroke-miterlimit="10"/>
<path d="M137.447 280.697C138.538 281.706 138.022 279.735 138.08 277.201C138.139 274.667 137.166 274.843 135.454 274.14C133.742 273.436 127.703 277.002 127.703 277.002L124.561 279.113C124.514 280.908 126.179 282.785 126.179 282.785C126.495 283.994 128.067 284.404 128.067 284.404C128.067 284.404 128.852 283.841 128.911 282.492C128.969 281.131 133.437 276.99 137.447 280.697Z" stroke="black" stroke-miterlimit="10"/>
<path d="M133.847 274.21L132.815 271.535L122.954 272.169L125.862 266.116C125.862 266.116 125.862 265.447 124.561 265.259C124.561 265.259 125.686 264.497 127.211 264.497C128.735 264.497 131.561 264.497 131.561 264.497L145.092 270.456L147.508 270.949C147.508 270.949 147.66 276.275 147.179 277.823C146.698 279.372 145.972 278.245 145.972 278.245V275.688C145.972 275.688 143.169 275.7 140.801 274.48C138.444 273.26 135.442 274.14 135.442 274.14C135.442 274.14 134.609 273.987 133.847 274.21Z" stroke="black" stroke-miterlimit="10"/>
<path d="M122.966 272.157L120.504 273.541C120.504 273.541 118.932 274.797 118.358 271.031L118.85 266.409C118.85 266.409 119.026 265.283 120.668 265.494L124.584 265.248C124.584 265.248 125.839 265.341 125.886 266.104C125.921 266.866 122.966 272.157 122.966 272.157Z" stroke="black" stroke-miterlimit="10"/>
<path d="M116.634 253.517L131.561 264.497C131.561 264.497 125.604 264.004 124.572 265.259C124.572 265.259 119.331 264.813 118.839 266.421C118.346 268.039 118.346 271.043 118.346 271.043C118.346 271.043 118.346 275.97 122.966 272.169L132.827 271.535L133.859 274.21C133.859 274.21 127.14 276.509 124.584 279.113L121.758 281.037C121.758 281.037 120.515 282.199 119.683 280.099C118.85 277.987 117.678 274.761 117.678 274.761L116.74 257.634L116.634 253.517Z" stroke="black" stroke-miterlimit="10"/>
<path d="M104.815 271.359L117.678 274.761L116.74 257.634C116.74 257.634 107.195 269.834 104.815 271.359Z" stroke="black" stroke-miterlimit="10"/>
<path d="M114.43 289.237C114.43 289.237 111.358 282.691 106.785 280.85L102.306 272.157L104.815 271.348L117.678 274.75C117.678 274.75 120.14 283.36 121.758 281.026L124.584 279.102C124.584 279.102 125.217 282.105 126.202 282.774C126.202 282.774 127.093 284.521 128.09 284.392L114.43 289.237Z" stroke="black" stroke-miterlimit="10"/>
<path d="M101.051 295.971C101.051 295.971 103.842 290.622 105.718 290.187C107.606 289.753 108.848 288.909 114.418 289.249C114.418 289.249 111.369 282.703 106.773 280.861C106.773 280.861 107.957 284.334 103.185 284.404C103.185 284.404 94.9184 287.36 89.4074 281.577L88.4225 282.727C88.4225 282.727 90.92 285.073 91.2718 285.249C91.6118 285.436 97.674 288.158 96.7359 293.542L101.051 295.971Z" stroke="black" stroke-miterlimit="10"/>
<path d="M93.0659 284.134C93.0659 284.134 93.957 282.856 92.7141 279.594C91.4712 276.333 92.6789 275.254 93.7225 275.559C94.7661 275.864 98.0961 277.448 101.051 281.577L103.197 284.404C103.208 284.404 97.2519 286.351 93.0659 284.134Z" stroke="black" stroke-miterlimit="10"/>
<path d="M89.4192 281.577L89.2198 277.811C89.2198 277.811 87.9418 274.89 90.0289 274.926C92.1161 274.961 93.359 274.386 93.7225 275.559C93.7225 275.559 91.436 274.949 92.7141 279.594C93.9922 284.24 93.0658 284.134 93.0658 284.134C93.0658 284.134 89.7592 282.081 89.4192 281.577Z" stroke="black" stroke-miterlimit="10"/>
<path d="M85.2566 277.377C85.2566 277.377 87.2382 276.802 87.0037 273.307C86.7692 269.811 97.7209 271.688 98.2016 272.157C98.6824 272.626 102.001 274.984 103.208 279.078C103.208 279.078 105.741 281.448 106.796 280.85C106.796 280.85 107.781 284.557 103.208 284.392C103.208 284.392 97.4277 276.192 93.7342 275.547C93.7342 275.547 93.699 274.14 90.0406 274.914C90.0406 274.914 87.8245 275.078 89.2316 277.8L89.4309 281.565L88.4459 282.715C88.4342 282.727 85.7608 279.43 85.2566 277.377Z" stroke="black" stroke-miterlimit="10"/>
<path d="M116.634 253.517L115.931 237.821L134.187 250.842L147.519 270.949C147.519 270.949 136.181 266.96 131.573 264.485L116.634 253.517Z" stroke="black" stroke-miterlimit="10"/>
<path d="M134.187 250.842L146.042 261.13L147.519 270.949L134.187 250.842Z" stroke="black" stroke-miterlimit="10"/>
<path d="M150.521 252.062L126.425 214.687L115.942 237.821L134.199 250.842L146.054 261.13C146.054 261.13 145.878 258.796 150.802 255.218L150.521 252.062Z" stroke="black" stroke-miterlimit="10"/>
<path d="M115.931 237.821L126.413 214.687L130.717 204.822L119.683 198.1L117.901 214.687L115.931 237.821Z" stroke="black" stroke-miterlimit="10"/>
<path d="M126.413 214.687L128.067 210.887C128.067 210.887 144.74 220.107 148.633 230.735L150.509 252.062L126.413 214.687Z" stroke="black" stroke-miterlimit="10"/>
<path d="M161.707 236.671L173.245 230.747C173.245 230.747 179.694 231.826 187.093 231.416L202.782 255.311L161.707 236.671Z" stroke="black" stroke-miterlimit="10"/>
<path d="M187.093 231.416C187.093 231.416 189.11 225.093 201.75 220.928C214.39 216.764 211.295 215.274 211.295 215.274L229.446 219.978L253.343 234.947L187.093 231.416Z" stroke="black" stroke-miterlimit="10"/>
<path d="M161.707 236.671L173.245 230.747C173.245 230.747 162.083 225.503 159.937 223.884C157.791 222.266 152.538 220.787 152.538 220.787C152.538 220.787 149.173 222.007 146.546 226.712C146.546 226.712 148.317 227.087 148.633 230.747L161.707 236.671Z" stroke="black" stroke-miterlimit="10"/>
<path d="M53.5975 233.691C53.5975 233.691 56.9627 227.779 69.1925 226.97C69.1925 226.97 72.6867 225.304 79.4055 234.947L81.0588 237.457L38.9406 260.778L53.5975 233.691Z" stroke="black" stroke-miterlimit="10"/>
<path d="M146.558 226.712C148.856 222.148 152.55 220.787 152.55 220.787C150.439 219.086 148.657 216.576 148.657 216.576C146.323 216.67 144.447 213.972 144.447 213.972C150.181 203.754 144.447 206.171 144.447 206.171L128.09 210.887C128.09 210.887 141.539 219.825 144.447 223.896C147.332 227.967 146.558 226.712 146.558 226.712Z" stroke="black" stroke-miterlimit="10"/>
<path d="M119.683 198.1L114.312 168.421L139.863 188.598L130.717 204.822L119.683 198.1Z" stroke="black" stroke-miterlimit="10"/>
<path d="M101.602 216.4V204.822C101.602 204.822 105.436 196.211 109.095 192.633L104.827 218.371C104.815 218.359 104.287 215.52 101.602 216.4Z" stroke="black" stroke-miterlimit="10"/>
<path d="M101.602 204.822L96.1731 186.979L98.5065 186.263L109.095 192.633C109.095 192.633 103.842 198.546 101.602 204.822Z" stroke="black" stroke-miterlimit="10"/>
<path d="M119.683 198.1L109.095 192.633L98.4948 186.263L96.1614 186.979L85.456 171.283C85.456 171.283 83.7558 170.028 83.2164 170.204C82.677 170.38 78.4675 160.784 78.4675 160.784L84.1193 159.165L95.411 158.18L115.309 159.435L114.324 168.397L119.683 198.1Z" stroke="black" stroke-miterlimit="10"/>
<path d="M146.792 206.511L162.634 187.343C162.634 187.343 164.697 184.199 167.828 186.627C170.971 189.044 182.25 196.117 182.25 196.117C182.25 196.117 159.046 194.346 144.436 213.984C144.436 213.972 147.531 208.916 146.792 206.511Z" stroke="black" stroke-miterlimit="10"/>
<path d="M144.436 213.972C144.436 213.972 151.518 209.315 153.851 209.045C153.851 209.045 154.25 209.854 152.057 213.972H154.391L164.158 208.317C164.158 208.317 167.523 207.52 161.719 200.164C161.707 200.164 149.266 206.265 144.436 213.972Z" stroke="black" stroke-miterlimit="10"/>
<path d="M148.645 216.576L152.045 213.972C152.045 213.972 154.109 210.112 153.839 209.045C153.57 207.966 144.424 213.972 144.424 213.972C144.424 213.972 146.405 216.576 148.645 216.576Z" stroke="black" stroke-miterlimit="10"/>
<path d="M148.645 216.576C148.645 216.576 158.412 218.277 160.57 217.561C160.57 217.561 167.922 219.262 174.641 219.086C174.641 219.086 176.329 221.233 182.25 220.787C182.25 220.787 177.42 223.392 177.595 226.254C177.595 226.254 174.547 228.588 173.245 230.735C173.245 230.735 161.285 225.351 159.937 223.873C158.588 222.395 152.538 220.776 152.538 220.776C152.538 220.776 149.266 217.831 148.645 216.576Z" stroke="black" stroke-miterlimit="10"/>
<path d="M154.379 213.972C154.379 213.972 160.113 214.066 160.558 217.561C160.558 217.561 155.176 217.925 148.633 216.576L152.034 213.972H154.379Z" stroke="black" stroke-miterlimit="10"/>
<path d="M164.932 207.637H166.304C166.304 207.637 172.577 204.294 176.786 204.376L182.25 196.106C182.25 196.106 169.716 195.554 161.719 200.164C161.707 200.164 165.975 205.608 164.932 207.637Z" stroke="black" stroke-miterlimit="10"/>
<path d="M160.558 217.561L165.108 218.394C165.108 218.394 163.689 216.001 166.292 207.637H164.92L154.367 213.972C154.379 213.972 159.761 213.878 160.558 217.561Z" stroke="black" stroke-miterlimit="10"/>
<path d="M166.292 207.637L168.508 206.581C168.508 206.581 168.356 214.605 174.629 219.086C174.629 219.086 166.503 218.652 165.108 218.394C165.119 218.394 163.783 213.854 166.292 207.637Z" stroke="black" stroke-miterlimit="10"/>
<path d="M176.786 204.376C176.786 204.376 188.23 204.247 190.728 205.584C190.728 205.584 195.641 217.022 182.25 220.787C182.25 220.787 175.942 221.151 174.641 219.086C174.641 219.086 168.309 214.793 168.52 206.581C168.508 206.581 174.183 204.059 176.786 204.376Z" stroke="black" stroke-miterlimit="10"/>
<path d="M177.595 226.254C177.595 226.254 182.344 223.298 185.217 223.427L192.299 220.811C192.299 220.811 193.425 218.899 191.361 219.086C191.361 219.086 185.674 220.694 184.713 219.931L182.262 220.787C182.239 220.787 177.408 223.474 177.595 226.254Z" stroke="black" stroke-miterlimit="10"/>
<path d="M192.288 220.811C192.288 220.811 197.107 219.11 198.08 217.385C198.08 217.385 196.696 217.362 196.732 216.564C196.732 216.564 192.006 219.157 191.338 219.075C191.349 219.086 193.319 219.051 192.288 220.811Z" stroke="black" stroke-miterlimit="10"/>
<path d="M196.732 216.576L200.73 213.972C200.73 213.972 201.574 215.039 202.547 214.84V215.649L198.08 217.397C198.08 217.385 196.673 217.198 196.732 216.576Z" stroke="black" stroke-miterlimit="10"/>
<path d="M190.716 205.584C190.716 205.584 191.901 205.021 198.889 208.141L205.924 212.247L205.831 213.843L202.536 214.84C202.536 214.84 201.152 214.734 200.718 213.972C200.718 213.972 195.758 209.889 191.537 209.221C191.549 209.209 191.15 206.03 190.716 205.584Z" stroke="black" stroke-miterlimit="10"/>
<path d="M205.936 212.247C205.936 212.247 210.063 213.233 211.048 214.84C211.048 214.84 208.633 215.098 207.601 214.113L205.854 213.843L205.936 212.247Z" stroke="black" stroke-miterlimit="10"/>
<path d="M184.689 219.931C184.689 219.931 192.112 217.55 191.549 209.221C191.549 209.221 196.45 210.171 200.73 213.972L196.731 216.576C196.731 216.576 191.525 219.403 191.338 219.086C191.349 219.086 185.44 220.694 184.689 219.931Z" stroke="black" stroke-miterlimit="10"/>
<path d="M182.239 196.106C182.239 196.106 196.767 197.384 210.275 202.956L208.926 204.341C208.926 204.341 186.835 198.018 181.312 197.49L182.239 196.106Z" stroke="black" stroke-miterlimit="10"/>
<path d="M176.786 204.376L181.324 197.502C181.324 197.502 202.958 202.241 208.938 204.352L200.214 208.916C200.214 208.916 193.882 205.526 190.716 205.596C190.716 205.584 184.291 203.977 176.786 204.376Z" stroke="black" stroke-miterlimit="10"/>
<path d="M200.214 208.916L208.938 204.352L210.286 202.968L216.806 204.352L225.799 219.039L211.295 215.274C211.295 215.274 210.931 213.127 205.936 212.247L200.214 208.916Z" stroke="black" stroke-miterlimit="10"/>
<path d="M182.239 196.106C182.239 196.106 199.722 181.512 204.834 180.433C209.946 179.354 209.946 182.38 209.946 182.38L216.806 204.341L210.286 202.956C210.275 202.968 198.432 197.666 182.239 196.106Z" stroke="black" stroke-miterlimit="10"/>
<path d="M128.078 210.887L130.717 204.822L139.863 188.598C139.863 188.598 174.254 179.905 178.217 180.644C178.217 180.644 186.19 179.483 191.35 180.597C191.35 180.597 198.995 183.331 200.742 182.357C200.742 182.357 183.599 194.064 182.25 196.117L167.828 186.627C167.828 186.627 164.908 184.586 162.634 187.343C160.347 190.099 146.792 206.511 146.792 206.511C146.792 206.511 146.441 205.596 144.436 206.171C142.419 206.746 128.078 210.887 128.078 210.887Z" stroke="black" stroke-miterlimit="10"/>
<path d="M79.7573 235.475L89.4544 224.377L92.4444 229.926L86.2767 238.137C86.2767 238.137 81.8797 242.032 82.6887 251.992C82.6887 251.992 80.8947 251.898 81.0706 237.469L79.7573 235.475Z" stroke="black" stroke-miterlimit="10"/>
<path d="M89.4426 224.377L95.9034 215.626L97.1229 223.392L92.4326 229.926L89.4426 224.377Z" stroke="black" stroke-miterlimit="10"/>
<path d="M95.9034 215.626L98.0961 213.784L101.602 212.306V216.4C101.602 216.4 101.086 216.787 100.652 217.69C100.218 218.594 97.6271 222.688 97.1229 223.392L95.9034 215.626Z" stroke="black" stroke-miterlimit="10"/>
<path d="M69.1925 226.97C69.1925 226.97 89.4895 220.353 93.054 215.626H95.9033L89.4543 224.365L79.7572 235.463C79.7572 235.474 73.8945 226.348 69.1925 226.97Z" stroke="black" stroke-miterlimit="10"/>
<path d="M98.0961 213.796C98.0961 213.796 84.7876 196.716 82.0321 196.176L86.0891 190.123L93.9922 187.835L96.607 188.445L101.59 204.822V212.306L98.0961 213.796Z" stroke="black" stroke-miterlimit="10"/>
<path d="M56.9628 202.898C56.9628 202.898 53.1989 215.602 65.628 217.491C78.0688 219.38 76.7204 206.265 76.7204 206.265L76.1106 204.247L72.9565 202.898H56.9628Z" stroke="black" stroke-miterlimit="10"/>
<path d="M71.3852 226.231L69.8022 217.526C69.8022 217.526 80.9415 217.62 82.5245 216.822L92.2567 216.482C92.2567 216.482 86.1594 221.679 71.3852 226.231Z" stroke="black" stroke-miterlimit="10"/>
<path d="M93.0541 215.626C93.0541 215.626 90.1814 210.746 89.6302 210.593L95.1061 210.018L98.1078 213.784L95.9152 215.626H93.0541Z" stroke="black" stroke-miterlimit="10"/>
<path d="M82.5245 216.822C82.5245 216.822 88.8563 212.904 84.553 210.03L76.5445 205.701C76.5445 205.701 78.2681 215.579 69.7905 217.526C69.8023 217.526 81.6099 217.479 82.5245 216.822Z" stroke="black" stroke-miterlimit="10"/>
<path d="M82.5245 216.822C82.5245 216.822 88.8329 212.693 84.5531 210.03L85.2097 208.106L89.6068 210.593L93.0306 215.626L92.2333 216.482L82.5245 216.822Z" stroke="black" stroke-miterlimit="10"/>
<path d="M76.5562 205.701L76.1223 204.247L78.9834 204.646C78.9834 204.646 83.2515 206.288 85.2331 208.106L84.5764 210.03L76.5562 205.701Z" stroke="black" stroke-miterlimit="10"/>
<path d="M73.5193 203.144L78.4675 195.003L82.032 196.176C82.032 196.176 87.1327 199.32 95.0943 210.03L89.6185 210.605L85.2214 208.118C85.2214 208.118 81.0002 205.15 78.9717 204.657L76.1106 204.259L73.5193 203.144Z" stroke="black" stroke-miterlimit="10"/>
<path d="M56.9628 202.898L56.2827 202.159C56.2827 202.159 50.2675 203.039 49.3646 203.672C49.3646 203.672 51.3111 200.071 51.1469 197.76C51.1469 197.76 52.765 192.61 53.5976 192.586H64.0216L76.9549 197.502L73.531 203.144L72.9682 202.898H56.9628Z" stroke="black" stroke-miterlimit="10"/>
<path d="M64.0216 192.575H75.9113L86.0891 190.123L82.0321 196.176L78.4675 194.991L76.9549 197.49L64.0216 192.575Z" stroke="black" stroke-miterlimit="10"/>
<path d="M56.9628 202.898L56.2827 202.159C56.2827 202.159 53.152 202.863 49.3646 203.672C45.5773 204.481 36.7596 212.951 36.7596 212.951C36.7596 212.951 39.2572 214.077 42.9156 210.898C42.9156 210.898 43.9005 210.323 45.6711 210.288C45.6711 210.288 48.5204 207.895 49.9744 207.496C49.9744 207.496 55.286 203.015 56.6579 209.631C56.6579 209.62 56.2358 204.059 56.9628 202.898Z" stroke="black" stroke-miterlimit="10"/>
<path d="M44.3109 206.511L39.8435 202.898L49.0246 195.097C49.0246 195.097 51.2877 193.149 51.1469 197.748C51.1469 197.748 51.0062 201.572 49.3647 203.66C49.3647 203.672 45.5539 205.103 44.3109 206.511Z" stroke="black" stroke-miterlimit="10"/>
<path d="M65.6279 217.491C51.5338 219.356 45.6593 210.288 45.6593 210.288C45.6593 210.288 48.5321 207.872 49.9626 207.496C49.9626 207.496 55.4971 203.261 56.6462 209.631C56.6462 209.631 57.4435 215.884 64.0098 217.174L65.6279 217.491Z" stroke="black" stroke-miterlimit="10"/>
<path d="M42.6927 211.086L53.5975 222.488L54.5825 232.483C54.5825 232.483 60.6329 226.712 69.1925 226.981L71.3852 226.242L69.8023 217.538L65.628 217.503C65.628 217.503 53.1285 219.708 45.6593 210.3C45.671 210.288 43.15 210.394 42.6927 211.086Z" stroke="black" stroke-miterlimit="10"/>
<path d="M31.8232 214.066L32.4916 207.919L39.8435 202.898L44.311 206.511C44.311 206.511 37.1349 212.294 36.7597 212.951C36.7597 212.951 39.1869 213.89 42.6928 211.086L53.5976 222.488L54.5826 232.483L53.5976 233.703C53.5976 233.691 38.671 233.433 31.8232 214.066Z" stroke="black" stroke-miterlimit="10"/>
<path d="M32.4916 207.919L34.0159 194.24L53.5976 192.575L51.147 197.748C51.147 197.748 51.7684 193.607 49.0246 195.097L39.8435 202.898L32.4916 207.919Z" stroke="black" stroke-miterlimit="10"/>
<path d="M56.4235 192.575L71.4791 182.322L88.3756 185.947L93.9922 187.835L86.0891 190.123L75.9113 192.575H56.4235Z" stroke="black" stroke-miterlimit="10"/>
<path d="M34.0159 194.24V183.307C34.0159 183.307 46.4332 179.94 50.2792 179.94C54.1369 179.94 63.3181 179.542 71.479 182.322L56.4234 192.575H53.5976L34.0159 194.24Z" stroke="black" stroke-miterlimit="10"/>
<path d="M25.3975 298.071C25.3975 298.071 13.1326 287.044 13.9417 260.778L21.0239 270.82L21.7743 275.512L17.7056 274.808L23.8849 288.662L25.3975 298.071Z" stroke="black" stroke-miterlimit="10"/>
<path d="M23.8849 288.662L17.7056 274.808L21.7743 275.512L23.8849 288.662Z" stroke="black" stroke-miterlimit="10"/>
<path d="M15.6888 263.253C15.6888 263.253 16.2165 245.669 19.1831 249.035C19.1831 249.035 19.101 265.717 21.024 270.82L15.6888 263.253Z" stroke="black" stroke-miterlimit="10"/>
<path d="M13.9417 260.778V247.417L19.183 238.806V249.024C19.183 249.024 16.0874 246.713 15.6888 263.242L13.9417 260.778Z" stroke="black" stroke-miterlimit="10"/>
<path d="M13.9417 247.417V236.296C13.9417 236.296 15.6536 230.383 13.9065 223.474C13.9065 223.474 14.4341 221.433 19.652 227.427L19.183 238.806L13.9417 247.417Z" stroke="black" stroke-miterlimit="10"/>
<path d="M13.9065 223.474C13.9065 223.474 10.7171 218.817 14.8445 214.863L19.8983 222.77L19.652 227.427C19.652 227.439 15.3839 221.867 13.9065 223.474Z" stroke="black" stroke-miterlimit="10"/>
<path d="M14.8329 214.863L18.3506 209.667L20.5667 211.614L20.3087 216.482L19.8983 222.77L14.8329 214.863Z" stroke="black" stroke-miterlimit="10"/>
<path d="M248.781 280.099C248.781 280.099 253.096 280.638 254.433 279.289C255.77 277.94 254.972 272.697 261.152 272.966C267.331 273.236 269.219 272.955 269.219 272.955C269.219 272.955 272.314 260.461 272.045 259.112C271.775 257.763 262.371 254.455 260.425 244.202C260.425 244.202 251.079 253.141 256.461 257.001C256.461 257.001 267.085 253.857 267.355 260.051C267.355 260.051 260.765 273.682 258.209 269.694L249.274 276.908L248.781 280.099Z" stroke="black" stroke-miterlimit="10"/>
<path d="M254.445 279.289C254.445 279.289 269.266 275.794 272.068 270.55C274.871 265.306 281.472 250.959 260.425 244.214C260.425 244.214 260.085 250.783 272.045 259.124L269.219 272.966L261.152 272.978C261.164 272.966 256.462 271.629 254.445 279.289Z" stroke="black" stroke-miterlimit="10"/>
<path d="M258.209 269.694C258.209 269.694 260.624 271.043 256.462 257.001C256.462 257.001 266.944 253.998 267.355 260.051C267.343 260.062 260.225 273.682 258.209 269.694Z" stroke="black" stroke-miterlimit="10"/>
<path d="M261.902 240.894C261.902 240.894 267.554 240.894 267.343 239.545L266.135 235.651L261.902 239.616C261.902 239.616 261.234 240.425 261.902 240.894Z" stroke="black" stroke-miterlimit="10"/>
<path d="M278.306 248.085L273.733 231.814C273.733 231.814 271.646 227.58 276.888 225.961C276.888 225.961 283.278 231.005 278.306 248.085Z" stroke="black" stroke-miterlimit="10"/>
<path d="M278.306 248.085L279.444 256.262L282.07 254.408L286.303 239.615C286.303 239.615 285.494 226.747 283.817 225.116L281.132 224.283L276.899 225.961C276.887 225.961 283.008 232.483 278.306 248.085Z" stroke="black" stroke-miterlimit="10"/>
<path d="M279.444 256.262L276.758 269.001C276.758 269.001 271.189 280.967 264.869 284.873C264.869 284.873 267.284 290.528 271.048 287.02C274.812 283.513 278.916 270.609 278.717 269.33L281.273 260.25L282.082 254.396L279.444 256.262Z" stroke="black" stroke-miterlimit="10"/>
<path d="M260.014 225.116L277.896 214.875H269.231C269.231 214.863 262.782 220.224 260.014 225.116Z" stroke="black" stroke-miterlimit="10"/>
<path d="M245.029 303.572C245.029 303.572 262.5 311.702 274.472 290.715C274.472 290.715 286.843 253.998 287.511 246.337C287.511 246.337 292.752 222.395 277.896 214.863L260.014 225.104L255.113 230.735L245.029 303.572Z" stroke="black" stroke-miterlimit="10"/>
<path d="M191.35 180.597C197.869 182.861 200.742 182.357 200.742 182.357L204.846 180.445C197.681 175.154 157.169 173.183 151.518 176.316C145.866 179.459 139.863 188.598 139.863 188.598C139.863 188.598 173.292 180.304 178.217 180.644C178.217 180.644 188.277 179.53 191.35 180.597Z" stroke="black" stroke-miterlimit="10"/>
<path d="M139.863 188.598C139.863 188.598 145.327 174.075 151.248 170.579C157.158 167.083 206.64 166.004 206.64 166.004C206.64 166.004 212.022 165.019 215.961 172.186C215.961 172.186 227.23 183.87 231.732 195.026H229.845L217.615 185.7L209.946 182.38C209.946 182.38 209.337 179.225 204.834 180.433C204.834 180.433 201.832 176.843 177.584 175.213C153.335 173.582 151.506 176.316 151.506 176.316C151.506 176.316 144.447 180.445 139.863 188.598Z" stroke="black" stroke-miterlimit="10"/>
<path d="M42.0596 181.313L51.7566 176.491L61.6999 175.952L80.6601 172.092L90.8027 186.768L88.3521 185.947L71.4556 182.31C71.4556 182.31 62.3096 179.26 50.2557 179.929C50.2792 179.94 44.8268 180.668 42.0596 181.313Z" stroke="black" stroke-miterlimit="10"/>
<path d="M83.2164 170.215C83.2164 170.215 49.1653 164.831 38.9406 167.529L23.885 187.085L25.3976 188.598L34.0159 183.307L42.0596 181.313L51.7567 176.492L61.7 175.952L80.6602 172.092L90.8028 186.768L96.5952 188.445L96.1497 186.979L85.4442 171.283L83.2164 170.215Z" stroke="black" stroke-miterlimit="10"/>
<path d="M95.4109 158.203L128.078 133.099L115.931 155.153L121.758 159.458L138.467 160.713L157.603 163.224L152.538 170.04L151.236 170.579C151.236 170.579 145.233 173.805 139.851 188.598L114.312 168.421L115.297 159.458L95.4109 158.203Z" stroke="black" stroke-miterlimit="10"/>
<path d="M152.538 170.04L157.603 163.224L170.818 146.273L173.233 144.525L190.705 150.308L210.263 166.591L206.616 166.004C206.628 166.004 156.302 167.447 152.538 170.04Z" stroke="black" stroke-miterlimit="10"/>
<path d="M255.113 230.735L254.574 197.502C254.574 197.502 257.259 163.752 250.681 153.804L240.198 181.102C240.198 181.102 241.945 156.22 237.103 150.038C237.103 150.038 233.878 136.184 222.985 125.826C222.985 125.826 222.985 141.967 229.844 154.074C229.844 154.074 219.092 140.489 217.744 135.105L198.326 132.278C198.326 132.278 201.926 148.056 208.938 160.115L211.377 167.13C211.377 167.13 214.883 169.758 215.95 172.175C215.95 172.175 228.672 186.029 231.721 195.015H229.833L217.603 185.689L209.934 182.369L216.794 204.329L225.787 219.016L229.434 219.966L253.331 234.935L255.113 230.735Z" stroke="black" stroke-miterlimit="10"/>
<path d="M269.231 214.863L268.961 200.164C268.961 200.164 259.487 180.163 261.609 146.003L232.483 138.495C232.483 138.495 236.024 145.592 237.103 150.038C237.103 150.038 242.074 157.171 240.198 181.102L250.681 153.804C250.681 153.804 256.86 163.599 254.574 197.502L255.113 230.735L260.014 225.104L269.231 214.863Z" stroke="black" stroke-miterlimit="10"/>
<path d="M217.744 135.117V124.958L227.359 116.288L255.453 109.766L264.599 122.142L267.155 122.447L269.242 114.541L273.886 129.404L258.584 145.229L232.495 138.507C232.495 138.507 225.283 126.917 222.997 125.837C222.997 125.837 222.504 140.724 229.856 154.085C229.845 154.074 219.538 140.712 217.744 135.117Z" stroke="black" stroke-miterlimit="10"/>
<path d="M273.862 129.392L278.506 144.525L273.323 182.592L261.609 146.003L258.572 145.229L273.862 129.392Z" stroke="black" stroke-miterlimit="10"/>
<path d="M268.961 200.164L275.41 185.7L273.323 182.58L261.597 146.003C261.609 146.003 259.006 179.143 268.961 200.164Z" stroke="black" stroke-miterlimit="10"/>
<path d="M278.506 144.525L285.224 155.012C285.224 155.012 286.972 162.192 275.41 185.7L273.323 182.58L278.506 144.525Z" stroke="black" stroke-miterlimit="10"/>
<path d="M269.36 114.083L266.675 90.5861L274.273 101.073C274.273 101.073 278.236 114.998 278.506 117.074L283.677 133.955C283.677 133.955 289.328 144.513 285.224 155L278.506 144.513L273.862 129.38L269.219 114.517L269.36 114.083Z" stroke="black" stroke-miterlimit="10"/>
<path d="M267.144 122.435L255.746 93.0144L259.51 93.9176L265.596 102.34L269.231 114.529L267.144 122.435Z" stroke="black" stroke-miterlimit="10"/>
<path d="M227.347 116.288V85.6591L230.196 59.1238L231.627 57.153L242.743 81.0019L250.634 98.481L255.453 109.754L227.347 116.288Z" stroke="black" stroke-miterlimit="10"/>
<path d="M231.627 57.153L236.552 57.9155C236.552 57.9155 262.36 81.4477 266.663 90.5978L269.219 114.541L265.584 102.352L259.487 93.9294L255.723 93.0378L267.132 122.459L264.576 122.154L255.43 109.778L231.627 57.153Z" stroke="black" stroke-miterlimit="10"/>
<path d="M236.563 57.9155C233.737 53.751 221.508 45.1405 221.508 45.1405C217.744 41.504 204.435 36.2602 204.435 36.2602L195.43 34.9112L189.649 36.6591L231.639 57.1413L236.563 57.9155Z" stroke="black" stroke-miterlimit="10"/>
<path d="M189.649 36.6591L181.406 60.4728L227.347 85.6591L230.196 59.1238L231.627 57.153L189.649 36.6591Z" stroke="black" stroke-miterlimit="10"/>
<path d="M181.406 60.4728L127 57.9155L166.527 81.9873L181.406 60.4728Z" stroke="black" stroke-miterlimit="10"/>
<path d="M166.526 81.9873L227.347 85.6591L181.406 60.4728L166.526 81.9873Z" stroke="black" stroke-miterlimit="10"/>
<path d="M166.526 81.9873L162.352 93.0144L126.062 75.1717L127 57.9155L166.526 81.9873Z" stroke="black" stroke-miterlimit="10"/>
<path d="M127 57.9155L160.828 36.6591L181.406 60.4728L127 57.9155Z" stroke="black" stroke-miterlimit="10"/>
<path d="M160.828 36.6591L165.577 31.6148L174.992 32.6941L181.406 60.4728L160.828 36.6591Z" stroke="black" stroke-miterlimit="10"/>
<path d="M174.992 32.694L187.691 34.2425L190.798 36.3072L189.649 36.6591L181.406 60.4728L174.992 32.694Z" stroke="black" stroke-miterlimit="10"/>
<path d="M124.35 100.815L114.582 104.487L79.2766 112.018L117.807 51.3227L127 44.6009V57.9155L126.062 75.1717L124.35 100.815Z" stroke="black" stroke-miterlimit="10"/>
<path d="M127 44.6009L148.997 29.0809L160.828 36.6591L127 57.9155V44.6009Z" stroke="black" stroke-miterlimit="10"/>
<path d="M79.2766 112.018L49.7047 81.9873L117.807 51.3227L79.2766 112.018Z" stroke="black" stroke-miterlimit="10"/>
<path d="M124.35 100.815L128.067 108.616L131.291 130.131L122.778 142.695L115.919 155.153C115.919 155.153 145.139 126.506 148.364 119.104L152.526 130.002L160.816 100.194L163.501 95.7946L162.786 114.529L160.546 132.735L167.535 114.623C167.535 114.623 167.265 102.962 169.153 98.481L183.317 130.94C183.317 130.94 177.138 107.091 175.156 103.42L171.346 90.8676L171.686 87.9818L167.722 82.0694L166.515 81.999L162.352 93.0261L126.05 75.1834L124.35 100.815Z" stroke="black" stroke-miterlimit="10"/>
<path d="M171.697 87.9701L180.363 100.745L189.169 103.443L195.43 95.7007L200.132 84.0167L167.734 82.0577L171.697 87.9701Z" stroke="black" stroke-miterlimit="10"/>
<path d="M180.363 100.745L190.036 127.984V132.559L188.019 142.648L188.148 147.493L192.85 136.196L197.693 143.457L211.353 167.154L208.914 160.139C208.914 160.139 201.07 146.425 198.303 132.301C198.303 132.301 197.353 132.301 196.919 126.788C196.485 121.274 196.415 98.4106 196.919 97.7419C197.423 97.0733 214.765 134.061 214.765 134.061L207.507 113.344L198.901 95.994L197.552 90.3867L195.407 95.7359L189.157 103.467L180.363 100.745Z" stroke="black" stroke-miterlimit="10"/>
<path d="M200.132 84.0168L227.347 116.289V85.6591L200.132 84.0168Z" stroke="black" stroke-miterlimit="10"/>
<path d="M197.576 90.3632L213.745 117.896L219.866 123.046L227.347 116.289L200.132 84.0168L197.576 90.3632Z" stroke="black" stroke-miterlimit="10"/>
<path d="M148.997 29.0809L142.548 24.2478L49.7047 81.9873L117.807 51.3227L148.997 29.0809Z" stroke="black" stroke-miterlimit="10"/>
<path d="M79.2765 112.018L85.7255 140.618L67.3047 163.224L71.4673 161.476L90.0171 141.569L110.994 112.03H112.741C112.741 112.03 95.7978 153.276 95.3991 155.153L109.188 136.184L127.598 107.631L124.338 100.804L114.57 104.475L79.2765 112.018Z" stroke="black" stroke-miterlimit="10"/>
<path d="M5.96834 131.304L0.586304 154.074V159.271L46.8554 101.531L29.5133 111.033L5.96834 131.304Z" stroke="black" stroke-miterlimit="10"/>
<path d="M49.7047 81.9873L26.019 114.036L29.5133 111.033L46.8554 101.531L79.2766 144.525L85.7256 140.63L79.2766 112.018L49.7047 81.9873Z" stroke="black" stroke-miterlimit="10"/>
<path d="M46.8554 101.531L27.473 155.153L23.7208 159.282C23.7208 159.282 24.3306 188.07 21.3757 190.123L17.8815 177.207C17.8815 177.207 16.5331 176.667 15.7357 177.031L13.4023 178.157L9.46256 177.688L3.36526 171.025L2.11063 165.558L0.586304 162.602V159.282L46.8554 101.531Z" stroke="black" stroke-miterlimit="10"/>
<path d="M27.473 155.153L26.019 160.842L34.0159 148.15L28.5518 172.092L37.0176 170.028L38.9523 167.517C38.9523 167.517 46.3277 166.344 54.5825 167.001L79.2766 144.525L46.8554 101.531L27.473 155.153Z" stroke="black" stroke-miterlimit="10"/>
<path d="M42.6927 113.062L46.8553 153.898L79.2765 144.525L46.8553 101.531L42.6927 113.062Z" stroke="black" stroke-miterlimit="10"/>
<path d="M18.3505 209.667L21.3757 190.123C21.3757 190.123 24.6354 181.512 23.7208 159.282L27.473 155.153L26.019 160.843L34.0158 148.15L28.5517 172.092L37.0176 170.028L23.8967 187.073L25.4093 188.586L34.0275 183.295V194.229L32.5032 207.907L31.8349 214.054L30.5333 228.495C30.5333 228.495 23.1345 216.881 20.3204 216.482L20.59 211.614L18.3505 209.667Z" stroke="black" stroke-miterlimit="10"/>
<path d="M5.96826 131.304L31.8231 75.4649L34.0158 61.165L73.5192 44.6009L39.8434 73.0601L26.019 114.036L5.96826 131.304Z" stroke="black" stroke-miterlimit="10"/>
<path d="M49.7047 81.9873L85.2214 46.0438L142.548 24.2478L49.7047 81.9873Z" stroke="black" stroke-miterlimit="10"/>
<path d="M26.019 114.036L39.8435 73.0601L73.5193 44.6009L142.548 24.2478L85.2214 46.0438L49.7047 81.9873L26.019 114.036Z" stroke="black" stroke-miterlimit="10"/>
<path d="M142.548 24.2478L77.6584 27.8257L53.9962 48.5659L69.9547 39.4862L77.4825 32.694L87.8831 31.6148L142.548 24.2478Z" stroke="black" stroke-miterlimit="10"/>
<path d="M142.548 24.2478L89.6654 31.3802L69.9547 39.4862L53.9962 48.5659L34.0159 61.1649L73.5193 44.6009L142.548 24.2478Z" stroke="black" stroke-miterlimit="10"/>
<path d="M60.9846 32.6941L83.7557 20.6581L75.5126 19.9426L69.2394 22.9926L71.5728 16.5289L77.846 15.0977L142.548 24.2478L77.6584 27.8257L79.9918 24.2478L60.9846 32.6941Z" stroke="black" stroke-miterlimit="10"/>
<path d="M77.8461 15.0977L101.766 7.20276L97.4629 0.926727L107.054 3.26118L142.548 24.2478L77.8461 15.0977Z" stroke="black" stroke-miterlimit="10"/>
<path d="M107.054 3.2612L131.608 6.4872L162.083 26.2186L165.483 21.3737V26.2186L183.927 17.4321L173.374 26.2186C173.374 26.2186 182.333 28.3653 185.029 27.4738C187.715 26.5822 198.291 25.1393 198.291 25.1393L207.965 34.9112L196.309 31.6148L192.182 32.694L195.407 34.9112L190.787 36.3072L187.679 34.2425L174.981 32.694L165.565 31.6148L160.816 36.6591L148.985 29.0809L142.536 24.2361L107.054 3.2612Z" stroke="black" stroke-miterlimit="10"/>
<path d="M78.4674 160.796L60.9846 167.482L83.2163 170.215L78.4674 160.796Z" stroke="black" stroke-miterlimit="10"/>
<path d="M54.5825 167.001L79.2766 144.525L85.7256 140.63L67.3048 163.224L71.4791 161.476L90.0289 141.569L111.006 112.018H112.753L95.4109 155.153L109.2 136.184L127.609 107.643L128.078 108.616L131.303 130.131L128.078 133.099L95.4109 158.203L84.1192 159.188L78.4675 160.796L60.9847 167.482L54.5825 167.001Z" stroke="black" stroke-miterlimit="10"/>
<path d="M115.931 155.153L137.904 132.43L137.201 160.62L121.758 159.458L115.931 155.153Z" stroke="black" stroke-miterlimit="10"/>
<path d="M137.201 160.62L152.538 130.002L148.375 119.104L137.904 132.43L137.201 160.62Z" stroke="black" stroke-miterlimit="10"/>
<path d="M159.632 160.62L160.558 132.735L162.798 114.529L163.525 95.7946L160.828 100.194L152.538 130.002L137.201 160.62L157.603 163.224L159.632 160.62Z" stroke="black" stroke-miterlimit="10"/>
<path d="M188.16 147.481L187.75 149.323L190.716 150.308L210.275 166.591L211.377 167.142L197.705 143.446L192.874 136.184L188.16 147.481Z" stroke="black" stroke-miterlimit="10"/>
<path d="M173.245 144.525C173.245 144.525 173.222 119.01 167.558 114.623L160.605 132.43L159.644 160.608L170.83 146.273L173.245 144.525Z" stroke="black" stroke-miterlimit="10"/>
<path d="M172.706 133.099L179.554 122.295L169.165 98.4927C169.165 98.4927 167.511 102.211 167.547 114.634C167.547 114.623 170.947 115.139 172.706 133.099Z" stroke="black" stroke-miterlimit="10"/>
<path d="M63.6112 211.931L66.4371 212.318L69.5326 211.614L70.201 209.35L69.8023 206.112L67.1758 204.822L63.6112 205.115L61.7351 206.511V208.564L62.4738 210.593L63.6112 211.931Z" stroke="black" stroke-miterlimit="10"/>
<path d="M69.8022 206.112H71.8777L72.4874 207.133V208.564L71.479 209.08L70.2009 209.35L69.8022 206.112Z" stroke="black" stroke-miterlimit="10"/>
<path d="M175.391 208.916L175.731 211.004L176.786 212.74L178.616 213.549L180.632 213.972L182.52 213.549L183.728 212.247L184.689 210.628V208.482L183.798 207.074L182.239 205.924H180.304L178.088 206.194L176.786 207.074L175.391 208.916Z" stroke="black" stroke-miterlimit="10"/>
<path d="M184.689 208.482L185.792 207.942H187.093L188.16 208.916V210.194L187.421 211.508H186.014L185.088 210.887L184.689 210.628V208.482Z" stroke="black" stroke-miterlimit="10"/>
<path d="M59.261 325.685L68.6532 322.565L81.0706 319.585L99.0342 313.18L109.74 295.431V289.272L105.718 290.176C105.718 290.176 102.388 292.463 101.051 295.959L76.31 306.986C76.31 306.986 63.4119 312.898 59.1672 316.535L59.261 325.685Z" stroke="black" stroke-miterlimit="10"/>
<path d="M114.43 289.237L125.522 313.72L140.507 316.418L157.65 322.823L169.141 325.627L179.343 333.404L179.378 324.524L178.979 321.345L167.465 309.825L129.556 292.745L121.489 291.056L114.43 289.237Z" stroke="black" stroke-miterlimit="10"/>
<path d="M109.751 295.431C109.751 295.431 112.894 299.83 112.577 301.707C112.261 303.596 111.1 311.62 107.512 313.18L114.43 316.899L124.432 311.315L114.43 289.237L109.751 289.272V295.431Z" stroke="black" stroke-miterlimit="10"/>
<path d="M86.8043 329.158C86.8043 329.158 88.3286 331.422 90.2516 331.293C90.2516 331.293 93.3472 335.997 93.8866 340.349C93.8866 340.349 94.637 345.452 96.5014 345.112C96.5014 345.112 102.306 338.601 111.674 335.68C111.674 335.68 126.507 335.809 130.588 337.381C130.588 337.381 141.481 331.422 142.548 329.627C142.548 329.627 134.293 328.723 130.224 329.979C130.224 329.979 128.078 329.404 114.16 332.337C114.16 332.337 109.212 333.909 105.8 330.331C105.8 330.331 88.6335 328.325 87.9651 328.723L86.8043 329.158Z" stroke="black" stroke-miterlimit="10"/>
<path d="M173.245 230.735C173.245 230.735 176.411 226.934 177.595 226.254C178.78 225.574 182.931 222.934 185.217 223.427L192.299 220.811C192.299 220.811 197.294 218.84 198.092 217.385L202.559 215.638V214.828L205.854 213.831L207.601 214.101C207.601 214.101 208.832 215.063 211.048 214.828L211.295 215.262C211.295 215.262 214.484 216.764 199.651 221.656C199.651 221.656 190.013 225.034 187.105 231.392C187.093 231.416 175.25 231.662 173.245 230.735Z" stroke="black" stroke-miterlimit="10"/>
<path d="M173.245 144.525L172.706 133.087L179.554 122.283L183.329 130.94C183.329 130.94 176.247 104.217 175.168 103.42L171.357 90.8676L171.697 87.9818L180.363 100.757L190.036 127.996V132.571L188.019 142.66L188.148 147.504L187.738 149.346L173.245 144.525Z" stroke="black" stroke-miterlimit="10"/>
<path d="M198.326 132.289C198.326 132.289 197.142 131.281 196.943 126.776C196.743 122.271 196.368 101.226 196.943 97.7302C196.943 97.7302 212.901 128.665 214.789 134.049L207.531 113.332L198.924 95.9823L197.576 90.3749L213.745 117.907L219.866 123.057L217.744 124.969V135.128L198.326 132.289Z" stroke="black" stroke-miterlimit="10"/>
<path d="M59.261 325.685H73.0033L77.3066 324.794C77.3066 324.794 79.0655 322.154 87.3554 319.949C87.3554 319.949 88.9149 318.248 98.014 315.644C98.014 315.644 99.0576 313.755 105.718 316.535C105.718 316.535 108.989 317.169 113.421 319.409C113.421 319.409 122.591 316.91 123.013 316.535C123.013 316.535 134.011 315.96 142.641 320.301C142.641 320.301 151.377 325.638 164.779 325.591L169.153 325.615L157.662 322.811L140.519 316.406L125.534 313.708L124.443 311.315L114.441 316.899L107.523 313.18C107.523 313.18 110.971 312.324 112.589 301.707C112.589 301.707 112.765 299.736 109.763 295.431L99.0576 313.18L81.094 319.585L68.6766 322.565L59.261 325.685Z" stroke="black" stroke-miterlimit="10"/>
<path d="M85.1862 268.849C85.1862 268.849 94.8598 264.438 98.4947 265.846L106.022 244.636C106.022 244.636 104.076 225.362 104.815 218.371C104.815 218.371 104.217 215.661 101.59 216.412L97.1111 223.403L92.4208 229.926L86.2532 238.137C86.2532 238.137 81.6333 243.041 82.6652 251.992V263.288C82.6769 263.288 82.161 268.415 85.1862 268.849Z" stroke="black" stroke-miterlimit="10"/>
<path d="M85.1862 268.849C85.1862 268.849 94.6018 264.497 98.4947 265.846C98.4947 265.846 98.8934 269.518 102.306 272.169L106.785 280.861C106.785 280.861 105.354 281.037 103.197 279.09C103.197 279.09 101.743 274.538 98.1898 272.169C98.1898 272.169 87.4727 269.482 87.0036 273.307C87.0036 273.307 87.6603 276.122 85.2565 277.377C85.2565 277.377 83.9315 273.412 85.1862 268.849Z" stroke="black" stroke-miterlimit="10"/>
<path d="M85.1863 268.849C85.1863 268.849 92.9369 250.959 97.3691 248.32C101.801 245.68 106.023 244.648 106.023 244.648L98.4948 265.846C98.4948 265.846 95.5869 264.321 85.1863 268.849Z" stroke="black" stroke-miterlimit="10"/>
</g>
<defs>
<clipPath id="clip0_381_51">
<rect width="289" height="588" fill="white"/>
</clipPath>
</defs>
</svg>
